<svg id="eNTxu6DF9zI1" xmlns="http://www.w3.org/2000/svg" xmlns:xlink="http://www.w3.org/1999/xlink" viewBox="0 0 208 182" shape-rendering="geometricPrecision" text-rendering="geometricPrecision"><style><![CDATA[#eNTxu6DF9zI2_ts {animation: eNTxu6DF9zI2_ts__ts 5000ms linear infinite normal forwards}@keyframes eNTxu6DF9zI2_ts__ts { 0% {transform: translate(104px,181px) scale(1,1)} 68% {transform: translate(104px,181px) scale(1,1)} 70% {transform: translate(104px,181px) scale(1.05,0.95)} 74% {transform: translate(104px,181px) scale(1,1)} 100% {transform: translate(104px,181px) scale(1,1)}} #eNTxu6DF9zI3_to {animation: eNTxu6DF9zI3_to__to 5000ms linear infinite normal forwards}@keyframes eNTxu6DF9zI3_to__to { 0% {transform: translate(186.450237px,108.805761px)} 22% {transform: translate(186.450237px,108.805761px)} 26% {transform: translate(176.397972px,71.396299px)} 32% {transform: translate(188.824638px,75.233921px)} 38% {transform: translate(176.397972px,71.396299px)} 46% {transform: translate(188.824638px,75.233921px)} 56% {transform: translate(186.450237px,108.805761px)} 100% {transform: translate(186.450237px,108.805761px)}} #eNTxu6DF9zI3_tr {animation: eNTxu6DF9zI3_tr__tr 5000ms linear infinite normal forwards}@keyframes eNTxu6DF9zI3_tr__tr { 0% {transform: rotate(0deg)} 22% {transform: rotate(0deg)} 26% {transform: rotate(-54.442609deg)} 32% {transform: rotate(6.423259deg)} 38% {transform: rotate(-54.442609deg)} 46% {transform: rotate(6.423259deg)} 56% {transform: rotate(0deg)} 100% {transform: rotate(0deg)}} #eNTxu6DF9zI4_to {animation: eNTxu6DF9zI4_to__to 5000ms linear infinite normal forwards}@keyframes eNTxu6DF9zI4_to__to { 0% {transform: translate(136px,103px)} 68% {transform: translate(136px,103px)} 74% {transform: translate(141px,103px)} 84% {transform: translate(141px,103px)} 92% {transform: translate(136px,103px)} 100% {transform: translate(136px,103px)}} #eNTxu6DF9zI5_to {animation: eNTxu6DF9zI5_to__to 5000ms linear infinite normal forwards}@keyframes eNTxu6DF9zI5_to__to { 0% {transform: translate(136px,103px)} 68% {transform: translate(136px,103px)} 74% {transform: translate(149px,103px)} 84% {transform: translate(149px,103px)} 92% {transform: translate(136px,103px)} 100% {transform: translate(136px,103px)}} #eNTxu6DF9zI6_to {animation: eNTxu6DF9zI6_to__to 5000ms linear infinite normal forwards}@keyframes eNTxu6DF9zI6_to__to { 0% {transform: translate(136px,73.233977px)} 12% {transform: translate(136px,73.233977px)} 16% {transform: translate(136px,69.396337px)} 20% {transform: translate(136px,73.233977px)} 100% {transform: translate(136px,73.233977px)}} #eNTxu6DF9zI7_ts {animation: eNTxu6DF9zI7_ts__ts 5000ms linear infinite normal forwards}@keyframes eNTxu6DF9zI7_ts__ts { 0% {transform: translate(103.127022px,149.07088px) scale(0.183036,0.1)} 12% {transform: translate(103.127022px,149.07088px) scale(0.183036,0.1)} 16% {transform: translate(103.127022px,149.07088px) scale(0.183036,0.1)} 20% {transform: translate(103.127022px,149.07088px) scale(0.183036,0.1)} 22% {transform: translate(103.127022px,149.07088px) scale(0.183036,0.1)} 28% {transform: translate(103.127022px,149.07088px) scale(1,0.7)} 84% {transform: translate(103.127022px,149.07088px) scale(1,0.7)} 92% {transform: translate(103.127022px,149.07088px) scale(0.183036,0.1)} 100% {transform: translate(103.127022px,149.07088px) scale(0.183036,0.1)}} #eNTxu6DF9zI8_ts {animation: eNTxu6DF9zI8_ts__ts 5000ms linear infinite normal forwards}@keyframes eNTxu6DF9zI8_ts__ts { 0% {transform: translate(103.127018px,148.407073px) scale(1,0)} 12% {transform: translate(103.127018px,148.407073px) scale(1,0)} 16% {transform: translate(103.127018px,148.407073px) scale(1,0)} 20% {transform: translate(103.127018px,148.407073px) scale(0.5,0)} 22% {transform: translate(103.127018px,148.407073px) scale(0.2,0)} 28% {transform: translate(103.127018px,148.407073px) scale(1,0.5)} 84% {transform: translate(103.127018px,148.407073px) scale(1,0.5)} 86% {transform: translate(103.127018px,148.407073px) scale(0.6,0.375)} 92% {transform: translate(103.127018px,148.407073px) scale(0.3,0)} 100% {transform: translate(103.127018px,148.407073px) scale(0.3,0)}} #eNTxu6DF9zI9_to {animation: eNTxu6DF9zI9_to__to 5000ms linear infinite normal forwards}@keyframes eNTxu6DF9zI9_to__to { 0% {transform: translate(69px,103px)} 68% {transform: translate(69px,103px)} 74% {transform: translate(74px,103px)} 84% {transform: translate(74px,103px)} 92% {transform: translate(69px,103px)} 100% {transform: translate(69px,103px)}} #eNTxu6DF9zI10_to {animation: eNTxu6DF9zI10_to__to 5000ms linear infinite normal forwards}@keyframes eNTxu6DF9zI10_to__to { 0% {transform: translate(69px,103px)} 68% {transform: translate(69px,103px)} 74% {transform: translate(82px,103px)} 84% {transform: translate(82px,103px)} 92% {transform: translate(69px,103px)} 100% {transform: translate(69px,103px)}} #eNTxu6DF9zI11_to {animation: eNTxu6DF9zI11_to__to 5000ms linear infinite normal forwards}@keyframes eNTxu6DF9zI11_to__to { 0% {transform: translate(69px,73.233972px)} 12% {transform: translate(69px,73.233972px)} 16% {transform: translate(69px,69.396337px)} 20% {transform: translate(69px,73.233972px)} 100% {transform: translate(69px,73.233972px)}}]]></style><g id="eNTxu6DF9zI2_ts" transform="translate(104,181) scale(1,1)"><path d="M89.5568,28.7694c6.8244-11.8291,23.9212-11.7583,30.6472.1269L191.377,154.658c6.659,11.765-1.841,26.342-15.36,26.342h-143.7275c-13.5839,0-22.0757-14.703-15.2875-26.469L89.5568,28.7694Z" transform="translate(-103.999996,-181)" fill="#07456f" fill-opacity="0.5" stroke="#4e4e4e" stroke-width="2"/></g><g id="eNTxu6DF9zI3_to" transform="translate(186.450237,108.805761)"><g id="eNTxu6DF9zI3_tr" transform="rotate(0)"><path d="M172.741,35.6685c.712-1.6901,2.761-2.3511,4.327-1.3959l19.943,12.166c1.532.9346,1.906,2.9962.801,4.4097L184.163,68.2929c-.938,1.199-2.625,1.5053-3.925.7125l-14.935-9.1108c-1.268-.7734-1.779-2.3578-1.202-3.7262l8.64-20.4999Z" transform="translate(-181.156975,-51.63859)" fill="#07456f" fill-opacity="0.6" stroke="#4e4e4e" stroke-width="2"/></g></g><g id="eNTxu6DF9zI4_to" transform="translate(136,103)"><circle r="21" transform="scale(-1,1) translate(0,0)" fill="#fff" stroke="#4e4e4e" stroke-width="2"/></g><g id="eNTxu6DF9zI5_to" transform="translate(136,103)"><circle r="8" transform="scale(-1,1) translate(0,0)" fill="#4e4e4e"/></g><g id="eNTxu6DF9zI6_to" transform="translate(136,73.233977)"><path d="M123,67c3.894-3.0185,14.545-7.2444,26,0" transform="translate(-136,-64.999996)" fill="none" stroke="#07456f" stroke-width="8" stroke-opacity="0.8" stroke-linecap="round"/></g><g id="eNTxu6DF9zI7_ts" transform="translate(103.127022,149.07088) scale(0.183036,0.1)"><path d="M130.16,137.5c3.225,0,5.888,2.631,5.374,5.815-.451,2.792-1.225,5.528-2.312,8.153-1.835,4.428-4.523,8.452-7.913,11.841-3.389,3.39-7.413,6.078-11.841,7.913C109.04,173.056,104.293,174,99.5,174c-4.7932,0-9.5396-.944-13.9679-2.778-4.4284-1.835-8.4522-4.523-11.8415-7.913-3.3893-3.389-6.0779-7.413-7.9122-11.841-1.0872-2.625-1.8617-5.361-2.3122-8.153-.5139-3.184,2.1485-5.815,5.3738-5.815h30.66h30.66Z" transform="translate(-99.500103,-164.198296)" fill="#fff"/></g><g id="eNTxu6DF9zI8_ts" transform="translate(103.127018,148.407073) scale(1,0)"><path d="M123.08,152c2.165,0,3.963,1.778,3.463,3.884-.337,1.42-.859,2.811-1.56,4.152-1.332,2.548-3.284,4.863-5.745,6.813-2.46,1.95-5.382,3.497-8.597,4.552C107.426,172.457,103.98,173,100.5,173s-6.926-.543-10.1411-1.599c-3.2151-1.055-6.1365-2.602-8.5972-4.552-2.4608-1.95-4.4128-4.265-5.7445-6.813-.7009-1.341-1.2228-2.732-1.5599-4.152C73.957,153.778,75.755,152,77.92,152h22.58h22.58Z" transform="translate(-100.500103,-162.500001)" fill="#ff8989"/></g><g id="eNTxu6DF9zI9_to" transform="translate(69,103)"><circle r="21" transform="scale(-1,1) translate(0,0)" fill="#fff" stroke="#4e4e4e" stroke-width="2"/></g><g id="eNTxu6DF9zI10_to" transform="translate(69,103)"><circle r="8" transform="scale(-1,1) translate(0,0)" fill="#4e4e4e"/></g><g id="eNTxu6DF9zI11_to" transform="translate(69,73.233972)"><path d="M56,67c3.8937-3.0185,14.5449-7.2444,26,0" transform="translate(-69,-64.999996)" fill="none" stroke="#07456f" stroke-width="8" stroke-opacity="0.8" stroke-linecap="round"/></g></svg>