<svg width="700" height="550" viewBox="0 0 700 550" fill="none" xmlns="http://www.w3.org/2000/svg">
<rect width="700" height="550" fill="#009F9D" fill-opacity="0.15"/>
<path d="M363.142 259.351C361.296 256.657 359.276 254.087 357.093 251.657C349.641 255.973 337.196 255.199 337.196 255.199L336.499 256.854C333.277 264.678 329.646 272.328 325.621 279.771C325.721 279.848 325.804 279.944 325.866 280.054C325.927 280.163 325.966 280.285 325.979 280.41V280.429C326.889 288.916 327.441 297.375 327.779 305.872C328.108 314.359 328.183 322.85 328.002 331.343C327.866 339.831 327.392 348.318 326.657 356.767L326.057 363.106L325.273 369.416L324.876 372.58L324.382 375.716L323.376 381.997L324.257 375.696L324.692 372.551L325.031 369.387L325.689 363.067L326.173 356.728C326.744 348.28 327.063 339.802 327.034 331.334C327.044 322.866 326.808 314.401 326.328 305.939C325.854 298.023 325.205 290.087 324.247 282.229C322.064 286.103 319.68 289.859 317.105 293.484C317.236 293.591 317.336 293.73 317.396 293.889C317.455 294.047 317.472 294.218 317.444 294.384C317.44 294.388 317.437 294.393 317.435 294.398C317.434 294.403 317.433 294.408 317.434 294.413V294.423C315.566 303.617 313.931 312.898 312.614 322.198C311.947 326.853 311.414 331.524 311.018 336.211C310.537 340.89 310.482 345.603 310.853 350.292C310.321 345.608 310.214 340.886 310.534 336.182C310.766 331.469 311.14 326.769 311.656 322.082C312.585 313.372 313.785 304.71 315.198 296.059C312.513 299.639 309.436 302.908 306.024 305.804C306.164 305.934 306.262 306.103 306.307 306.289C306.352 306.475 306.341 306.67 306.275 306.849V306.859L306.266 306.888C303.08 314.882 300.492 323.102 298.524 331.479C297.513 335.631 296.968 339.884 296.898 344.157C296.865 346.25 297.246 348.328 298.02 350.273C298.434 351.301 298.779 352.355 299.056 353.428C299.337 354.483 299.607 355.538 299.811 356.612C300.72 360.86 301.359 365.138 301.959 369.425C302.569 373.712 303.062 378.009 303.566 382.306C304.514 390.9 305.34 399.507 306.043 408.126C305.182 399.523 304.195 390.936 303.082 382.364C302.511 378.077 301.93 373.8 301.243 369.532C300.566 365.273 299.849 361.006 298.862 356.815C298.649 355.76 298.359 354.734 298.059 353.709C297.784 352.69 297.441 351.691 297.033 350.718C296.155 348.655 295.697 346.438 295.688 344.195C295.676 339.814 296.15 335.446 297.101 331.169C298.839 323.063 301.162 315.094 304.05 307.323C291.798 316.178 284.259 309.598 284.259 309.598L278.297 322.769C274.544 331.069 274.057 340.478 276.933 349.121C282.904 367.112 287.307 399.242 287.81 419.972C292.146 420.756 296.443 421.54 300.759 422.266C305.075 422.962 309.382 423.64 313.718 424.114C318.026 424.642 322.364 424.901 326.705 424.888C328.867 424.884 331.026 424.709 333.16 424.366C335.315 424.061 337.403 423.393 339.335 422.391C337.566 423.755 335.537 424.743 333.373 425.295C331.218 425.878 329.01 426.248 326.783 426.398C322.352 426.697 317.903 426.574 313.495 426.03C309.109 425.519 304.756 424.753 300.459 423.737C296.165 422.759 291.94 421.501 287.81 419.972C288.011 424.774 287.811 429.584 287.21 434.353C295.149 438.266 303.781 440.572 312.613 441.14C321.445 441.708 330.302 440.526 338.676 437.663C338.676 437.663 340.68 394.858 340.893 370.838C340.984 359.576 344.342 348.582 350.561 339.192L355.98 331.024L363.868 319.111C369.762 310.229 372.845 299.778 372.715 289.119C372.586 278.46 369.25 268.087 363.142 259.351V259.351ZM292.388 432.572C292.012 432.559 291.656 432.4 291.394 432.129C291.133 431.859 290.987 431.497 290.987 431.121C290.987 430.745 291.133 430.383 291.394 430.112C291.656 429.841 292.012 429.683 292.388 429.669C292.764 429.683 293.12 429.841 293.381 430.112C293.643 430.383 293.789 430.745 293.789 431.121C293.789 431.497 293.643 431.859 293.381 432.129C293.12 432.4 292.764 432.559 292.388 432.572V432.572ZM299.356 434.314C298.98 434.301 298.624 434.142 298.362 433.871C298.101 433.601 297.955 433.239 297.955 432.863C297.955 432.487 298.101 432.125 298.362 431.854C298.624 431.583 298.98 431.425 299.356 431.411C299.732 431.425 300.088 431.584 300.349 431.854C300.61 432.125 300.756 432.487 300.756 432.863C300.756 433.239 300.61 433.601 300.349 433.871C300.088 434.142 299.732 434.301 299.356 434.314V434.314ZM308.414 435.708C308.038 435.695 307.682 435.536 307.421 435.265C307.159 434.994 307.013 434.633 307.013 434.256C307.013 433.88 307.159 433.519 307.421 433.248C307.682 432.977 308.038 432.818 308.414 432.805C308.79 432.818 309.146 432.977 309.408 433.248C309.669 433.519 309.815 433.88 309.815 434.256C309.815 434.633 309.669 434.994 309.408 435.265C309.146 435.536 308.79 435.695 308.414 435.708V435.708ZM317.473 436.056C317.096 436.043 316.74 435.884 316.479 435.613C316.218 435.343 316.072 434.981 316.072 434.605C316.072 434.228 316.218 433.867 316.479 433.596C316.74 433.325 317.096 433.167 317.473 433.153C317.849 433.167 318.205 433.325 318.466 433.596C318.727 433.867 318.873 434.229 318.873 434.605C318.873 434.981 318.727 435.343 318.466 435.613C318.205 435.884 317.849 436.043 317.473 436.056V436.056ZM326.879 435.708C326.503 435.695 326.147 435.536 325.886 435.265C325.624 434.994 325.478 434.633 325.478 434.256C325.478 433.88 325.624 433.518 325.886 433.248C326.147 432.977 326.503 432.818 326.879 432.805C327.255 432.818 327.611 432.977 327.873 433.248C328.134 433.519 328.28 433.88 328.28 434.256C328.28 434.633 328.134 434.994 327.873 435.265C327.612 435.536 327.255 435.695 326.879 435.708V435.708ZM334.544 434.663C334.168 434.649 333.812 434.491 333.551 434.22C333.289 433.949 333.143 433.587 333.143 433.211C333.143 432.835 333.289 432.473 333.551 432.203C333.812 431.932 334.168 431.773 334.544 431.76C334.92 431.773 335.276 431.932 335.538 432.202C335.799 432.473 335.945 432.835 335.945 433.211C335.945 433.588 335.799 433.949 335.538 434.22C335.276 434.491 334.92 434.65 334.544 434.663V434.663ZM358.39 290.504C357.709 294.831 356.56 299.072 354.964 303.152C354.538 304.169 354.141 305.194 353.677 306.181L352.187 309.124C351.943 309.615 351.668 310.09 351.364 310.546L350.493 311.949L349.612 313.343C349.332 313.808 348.954 314.214 348.625 314.659L346.603 317.253L344.328 319.614L343.177 320.775L341.899 321.811C341.057 322.488 340.196 323.156 339.335 323.814C340.07 323.001 340.796 322.208 341.531 321.424L342.635 320.253L343.622 318.975L345.615 316.459L347.386 313.798C349.693 310.22 351.629 306.416 353.164 302.446C354.722 298.472 355.977 294.386 356.919 290.223C357.859 286.021 358.532 281.764 358.932 277.477C359.289 281.825 359.107 286.2 358.39 290.504V290.504Z" fill="#020202"/>
<path d="M401.743 439.38C424.042 437.944 446.359 437.093 468.68 436.386C479.842 436.065 491.004 435.768 502.17 435.584C513.335 435.372 524.504 435.286 535.676 435.324C524.527 436.038 513.373 436.628 502.216 437.093C491.059 437.585 479.899 437.964 468.739 438.319C446.416 438.964 424.088 439.465 401.743 439.38Z" fill="#020202"/>
<path d="M464.031 456.501C473.22 455.51 482.425 455.104 491.633 454.843C496.237 454.744 500.843 454.67 505.451 454.709C510.058 454.72 514.669 454.856 519.283 455.118C514.688 455.609 510.09 455.976 505.489 456.218C500.888 456.488 496.285 456.644 491.681 456.776C482.472 456.976 473.259 457.032 464.031 456.501Z" fill="#020202"/>
<path d="M432.496 289.415C454.795 287.978 477.112 287.127 499.433 286.42C510.595 286.099 521.757 285.802 532.923 285.618C544.088 285.406 555.257 285.32 566.429 285.359C555.28 286.073 544.126 286.662 532.969 287.128C521.812 287.619 510.653 287.999 499.492 288.353C477.169 288.998 454.841 289.499 432.496 289.415Z" fill="#020202"/>
<path d="M494.784 306.535C503.974 305.544 513.178 305.139 522.386 304.877C526.991 304.778 531.596 304.704 536.204 304.743C540.812 304.754 545.423 304.89 550.036 305.152C545.442 305.643 540.844 306.01 536.242 306.253C531.642 306.522 527.038 306.678 522.434 306.811C513.225 307.01 504.012 307.066 494.784 306.535Z" fill="#020202"/>
<path d="M187.161 491.715L228.736 489.414L270.319 487.315L353.501 483.431L436.702 479.993L478.309 478.433L519.926 477.077L478.351 479.381L436.767 481.48L353.586 485.362L270.385 488.796L228.777 490.357L187.161 491.715Z" fill="#020202"/>
<path d="M349.417 222.889L348.76 222.887C348.662 222.887 348.584 222.887 348.707 222.886L349.202 222.885C349.271 222.885 349.166 222.884 348.984 222.884L348.48 222.881L349.417 222.879H349.611L350.548 222.881L350.044 222.884C349.862 222.884 349.757 222.885 349.826 222.885L350.321 222.886C350.445 222.887 350.366 222.887 350.268 222.887L349.611 222.889H349.417Z" fill="#020202"/>
<path d="M354.992 253.102L354.991 253.759C354.99 253.857 354.99 253.936 354.989 253.812L354.988 253.317C354.988 253.248 354.987 253.354 354.987 253.535L354.984 254.039L354.982 253.102V252.909L354.984 251.972L354.987 252.475C354.987 252.657 354.988 252.762 354.988 252.693L354.989 252.198C354.99 252.075 354.99 252.153 354.991 252.252L354.992 252.909V253.102Z" fill="#020202"/>
<path d="M356.076 331.027C356.023 335.864 355.927 340.7 355.79 345.535C355.63 350.371 355.532 355.211 355.321 360.047L354.821 359.298C358.945 360.647 363.246 361.376 367.584 361.459C369.69 361.492 371.784 361.151 373.77 360.451C374.71 360.092 375.582 359.574 376.346 358.919C376.718 358.594 377.058 358.234 377.363 357.845L378.272 356.492C379.68 354.617 381.525 353.115 383.647 352.117C385.676 351.116 387.811 350.349 390.013 349.83C394.36 348.813 398.808 348.291 403.273 348.273L403.036 348.876C400.949 346.607 399.243 344.015 397.984 341.201C396.633 338.467 395.424 335.665 394.361 332.807C392.201 327.11 390.299 321.323 388.552 315.49C385.049 303.825 382.254 291.969 379.664 280.083C377.081 268.193 374.819 256.243 372.876 244.232C371.874 238.235 370.919 232.23 370.059 226.211C369.17 220.197 368.358 214.171 367.622 208.135C367.619 208.11 367.626 208.085 367.641 208.065C367.656 208.045 367.679 208.031 367.704 208.028C367.728 208.024 367.754 208.03 367.774 208.044C367.795 208.059 367.809 208.081 367.814 208.105L374.56 243.932C376.882 255.855 379.173 267.78 381.614 279.671C382.827 285.619 384.092 291.556 385.457 297.468C386.785 303.389 388.211 309.286 389.733 315.159C391.272 321.025 392.927 326.87 395.005 332.565C396.027 335.416 397.195 338.212 398.504 340.942L399.549 342.952L400.712 344.889C401.117 345.522 401.579 346.112 402.014 346.722C402.473 347.31 403.018 347.815 403.512 348.366L403.526 348.382C403.571 348.432 403.6 348.494 403.611 348.56C403.622 348.626 403.614 348.694 403.588 348.756C403.561 348.818 403.518 348.871 403.462 348.909C403.407 348.947 403.342 348.968 403.275 348.97C398.891 349.109 394.54 349.778 390.318 350.963C388.233 351.539 386.22 352.349 384.317 353.377C382.46 354.346 380.853 355.732 379.621 357.426L378.709 358.843C378.344 359.333 377.933 359.787 377.481 360.198C376.572 360.993 375.531 361.622 374.405 362.058C372.223 362.862 369.905 363.234 367.58 363.152C363.066 363.003 358.6 362.179 354.33 360.707C354.178 360.657 354.047 360.559 353.956 360.427C353.866 360.295 353.821 360.136 353.829 359.977L353.831 359.957C354.087 355.135 354.458 350.317 354.766 345.494C355.092 340.673 355.464 335.851 355.882 331.027L355.883 331.018C355.885 330.993 355.897 330.97 355.915 330.953C355.934 330.937 355.959 330.928 355.984 330.93C356.009 330.931 356.032 330.942 356.049 330.96C356.067 330.978 356.076 331.002 356.076 331.027V331.027Z" fill="#020202"/>
<path d="M337.195 255.202C340.182 254.667 343.159 254.352 346.102 253.914C347.575 253.726 349.034 253.475 350.476 253.222C351.886 252.971 353.274 252.608 354.627 252.136L354.668 252.12C354.769 252.083 354.875 252.065 354.982 252.066L354.992 252.066L354.637 252.135C355.294 251.906 355.901 251.552 356.423 251.092L356.237 251.859C355.89 250.134 355.585 248.399 355.322 246.655C355.05 244.912 354.834 243.157 354.702 241.382C355.366 243.033 355.946 244.704 356.471 246.388C357.004 248.069 357.495 249.761 357.947 251.461C357.98 251.588 357.983 251.722 357.955 251.85C357.927 251.979 357.868 252.098 357.785 252.2L357.761 252.228C357.103 252.967 356.274 253.532 355.347 253.875C355.245 253.919 355.136 253.943 355.025 253.945L354.992 253.945L354.982 253.945L355.338 253.875C353.879 254.455 352.357 254.86 350.803 255.08C349.297 255.319 347.779 255.475 346.256 255.549C343.231 255.697 340.199 255.581 337.195 255.202Z" fill="#020202"/>
<path d="M296.345 240.608L295.377 240.603L296.345 240.599L297.312 240.603L296.345 240.608Z" fill="#020202"/>
<path d="M297.631 438.193C297.824 438.212 297.684 438.206 297.727 438.214L297.726 438.228L297.725 438.255L297.722 438.311L297.717 438.422C297.716 438.496 297.709 438.57 297.699 438.643C297.684 438.792 297.66 438.94 297.628 439.085C297.567 439.381 297.474 439.669 297.35 439.944C297.096 440.504 296.73 441.005 296.275 441.418C295.811 441.84 295.268 442.164 294.676 442.372L293.032 442.921C290.836 443.64 288.631 444.332 286.423 445.017C282.021 446.362 277.524 447.689 273.158 448.907C272.179 449.198 271.289 449.73 270.569 450.454C269.85 451.178 269.324 452.072 269.04 453.052C268.767 454.078 268.777 455.158 269.069 456.177C269.36 457.197 269.923 458.12 270.696 458.846C271.426 459.68 272.365 460.303 273.417 460.653C274.468 461.002 275.594 461.065 276.678 460.834C278.974 460.597 281.265 460.327 283.553 460.024L283.562 460.023C283.622 460.015 283.682 460.023 283.737 460.047C283.791 460.071 283.839 460.109 283.874 460.157C283.909 460.206 283.93 460.262 283.935 460.322C283.94 460.381 283.93 460.441 283.904 460.495C283.28 461.727 283.142 463.149 283.519 464.478C283.886 465.765 284.731 466.863 285.881 467.547C286.488 467.87 287.122 468.137 287.777 468.345C288.448 468.588 289.128 468.804 289.81 469.008C291.168 469.426 292.55 469.761 293.948 470.011C296.722 470.525 299.553 470.654 302.363 470.396C303.038 470.334 303.71 470.233 304.374 470.094C304.991 469.936 305.584 469.696 306.137 469.379C306.707 469.046 307.239 468.651 307.724 468.203L309.369 466.784C313.746 462.987 318.217 459.301 322.706 455.627C323.242 455.172 323.883 454.694 324.331 454.258C324.791 453.8 325.179 453.276 325.483 452.703C326.104 451.532 326.298 450.18 326.031 448.881C325.89 448.229 325.628 447.609 325.256 447.054C324.829 446.444 324.454 445.801 324.134 445.129C323.82 444.456 323.564 443.757 323.37 443.04C323.142 442.324 323.052 441.572 323.104 440.822C323.107 440.798 323.12 440.776 323.138 440.761C323.157 440.745 323.181 440.738 323.205 440.739C323.229 440.741 323.252 440.751 323.269 440.769C323.285 440.787 323.294 440.81 323.294 440.834L323.294 440.861C323.347 441.564 323.518 442.254 323.799 442.9C324.052 443.564 324.362 444.206 324.726 444.817C325.095 445.423 325.512 445.998 325.974 446.536C326.458 447.158 326.821 447.865 327.042 448.621C327.36 449.781 327.376 451.003 327.09 452.171C326.804 453.339 326.225 454.415 325.408 455.297C324.838 455.896 324.319 456.3 323.773 456.811C319.46 460.706 315.128 464.588 310.702 468.361L309.047 469.78C308.457 470.309 307.807 470.767 307.11 471.144C306.391 471.531 305.623 471.819 304.828 472.001C304.068 472.144 303.301 472.242 302.53 472.294C299.544 472.513 296.543 472.287 293.623 471.623C292.176 471.298 290.751 470.885 289.354 470.386C288.658 470.134 287.972 469.86 287.296 469.564L286.286 469.11C285.926 468.946 285.58 468.751 285.253 468.528C283.935 467.624 283.006 466.258 282.649 464.701C282.323 463.182 282.546 461.598 283.279 460.228L283.629 460.699C281.331 460.916 279.036 461.157 276.746 461.435C275.564 461.655 274.348 461.614 273.184 461.314C272.012 460.966 270.942 460.339 270.064 459.487C269.137 458.664 268.415 457.635 267.959 456.482C267.503 455.283 267.408 453.977 267.687 452.725C267.948 451.452 268.548 450.273 269.422 449.312C270.296 448.351 271.413 447.643 272.655 447.262C277.164 445.945 281.561 444.805 286.043 443.645C288.279 443.084 290.516 442.527 292.764 441.999L294.451 441.612C294.975 441.487 295.468 441.257 295.901 440.936C296.333 440.616 296.696 440.211 296.969 439.747C297.113 439.511 297.233 439.26 297.326 439C297.375 438.869 297.417 438.735 297.449 438.599C297.469 438.532 297.484 438.463 297.495 438.394L297.515 438.29L297.525 438.238L297.53 438.211L297.532 438.198C297.576 438.197 297.437 438.182 297.631 438.193Z" fill="#020202"/>
<path d="M283.591 460.362C285.381 458.564 287.261 456.859 289.223 455.252C291.158 453.626 293.16 452.091 295.175 450.573C297.212 449.085 299.263 447.616 301.382 446.238L302.974 445.208C303.474 444.909 303.93 444.541 304.328 444.115C305.169 443.219 305.76 442.118 306.043 440.922C306.141 442.251 305.803 443.576 305.081 444.695C304.706 445.268 304.251 445.784 303.729 446.228L302.281 447.451C300.346 449.077 298.344 450.612 296.327 452.127C294.289 453.614 292.238 455.083 290.119 456.46C288.01 457.87 285.832 459.172 283.591 460.362V460.362Z" fill="#020202"/>
<path d="M276.932 185.306C266.216 187.592 255.489 189.797 244.768 192.008C239.407 193.108 234.056 194.249 228.716 195.431L220.712 197.206L216.727 198.142C215.963 198.326 215.171 198.361 214.393 198.246L212.361 197.931C201.537 196.268 190.726 194.482 179.868 193.057L175.796 192.523C175.53 192.442 175.242 192.465 174.992 192.587C174.885 192.643 174.792 192.725 174.722 192.824C174.652 192.923 174.606 193.037 174.589 193.157C174.528 193.767 174.663 194.381 174.974 194.909C175.707 196.004 176.669 196.927 177.793 197.615C178.933 198.335 180.127 198.967 181.364 199.504C186.399 201.574 191.618 203.164 196.953 204.25L196.962 204.252C197.017 204.265 197.07 204.286 197.12 204.313C197.7 204.64 198.214 205.072 198.635 205.587C199.063 206.115 199.373 206.729 199.543 207.388C199.782 208.702 199.526 210.059 198.826 211.197C198.199 212.231 197.433 213.175 196.549 214.002C195.698 214.806 194.8 215.56 193.86 216.259L193.849 216.266L193.808 216.294C193.01 216.793 192.268 217.376 191.594 218.031C191.349 218.255 191.156 218.53 191.031 218.837C191.043 218.882 191.008 218.722 190.998 218.736C191.089 218.797 191.188 218.844 191.293 218.874C192.177 219.072 193.085 219.139 193.988 219.072C194.961 219.035 195.931 218.944 196.894 218.8C200.726 218.066 204.305 216.358 207.286 213.84C208.055 213.233 208.796 212.585 209.508 211.908C209.868 211.572 210.214 211.222 210.559 210.872C210.903 210.515 211.212 210.17 211.636 209.75C213.285 208.16 215.445 207.208 217.732 207.064C218.284 207.037 218.837 207.049 219.387 207.102L220.892 207.212L223.906 207.396C225.918 207.496 227.931 207.566 229.944 207.605C233.972 207.698 237.999 207.651 242.025 207.464C246.051 207.286 250.054 206.854 254.048 206.348C258.036 205.789 261.983 204.977 265.868 203.916C269.749 202.818 273.512 201.335 277.099 199.489C277.11 199.483 277.122 199.479 277.135 199.477C277.148 199.476 277.16 199.477 277.173 199.48C277.185 199.484 277.196 199.489 277.206 199.497C277.216 199.505 277.225 199.515 277.231 199.526C277.242 199.548 277.245 199.574 277.239 199.598C277.233 199.622 277.218 199.642 277.197 199.656C273.697 201.741 269.984 203.446 266.121 204.74C262.233 205.967 258.269 206.941 254.256 207.658C246.212 208.974 238.071 209.604 229.92 209.542C227.884 209.523 225.848 209.475 223.814 209.396L220.762 209.242L219.237 209.147C218.779 209.106 218.318 209.099 217.859 209.126C216.062 209.246 214.366 209.995 213.066 211.241L212.039 212.309C211.673 212.68 211.307 213.049 210.926 213.404C210.169 214.119 209.385 214.808 208.561 215.45C205.281 218.139 201.364 219.937 197.187 220.673C196.144 220.816 195.095 220.901 194.043 220.927C192.923 220.995 191.799 220.883 190.714 220.596C190.333 220.478 189.986 220.272 189.701 219.993C189.513 219.799 189.375 219.561 189.299 219.302C189.223 219.042 189.212 218.768 189.265 218.503C189.345 218.13 189.507 217.78 189.738 217.477C189.915 217.232 190.111 217.001 190.324 216.788C191.108 216.036 191.973 215.373 192.903 214.813L192.851 214.848C193.741 214.215 194.595 213.532 195.407 212.801C196.194 212.099 196.884 211.294 197.456 210.408C197.983 209.616 198.203 208.661 198.076 207.718C197.968 207.276 197.769 206.862 197.49 206.502C197.199 206.135 196.85 205.819 196.456 205.564L196.623 205.627L192.642 204.539C191.327 204.129 189.999 203.773 188.696 203.318C186.064 202.484 183.49 201.475 180.992 200.298C179.734 199.706 178.523 199.017 177.37 198.239C176.173 197.461 175.151 196.441 174.371 195.244C173.992 194.578 173.837 193.808 173.931 193.048C173.967 192.829 174.053 192.621 174.183 192.441C174.313 192.261 174.484 192.113 174.68 192.01C175.051 191.828 175.475 191.783 175.876 191.883L179.942 192.463C190.787 194.009 201.678 195.195 212.556 196.504L214.593 196.745C215.177 196.81 215.768 196.762 216.334 196.604L220.326 195.58C222.99 194.916 225.669 194.325 228.346 193.732C233.711 192.595 239.091 191.547 244.473 190.515C255.242 188.485 266.051 186.685 276.898 185.115C276.923 185.112 276.949 185.118 276.969 185.133C276.989 185.147 277.003 185.17 277.008 185.194C277.012 185.219 277.006 185.245 276.992 185.265C276.978 185.286 276.957 185.301 276.932 185.306L276.932 185.306Z" fill="#020202"/>
<path d="M385.141 187.102L393.47 187.928C396.247 188.206 399.021 188.503 401.792 188.818C407.335 189.451 412.885 190.03 418.418 190.732L435.029 192.763C440.56 193.484 446.09 194.214 451.608 195.041L451.208 195.101L464.49 189.339C468.922 187.429 473.32 185.445 477.713 183.449L484.275 180.397L485.915 179.633C486.199 179.505 486.439 179.381 486.759 179.249C487.116 179.103 487.513 179.088 487.88 179.205C488.248 179.325 488.564 179.565 488.778 179.886C488.993 180.208 489.093 180.592 489.062 180.978C489.013 181.33 488.886 181.666 488.69 181.963C488.545 182.235 488.384 182.496 488.227 182.761C485.567 186.943 481.778 190.287 477.297 192.406L477.142 191.162C477.5 191.236 477.841 191.374 478.149 191.57C478.482 191.779 478.757 192.069 478.948 192.413C479.112 192.753 479.2 193.123 479.208 193.5C479.216 193.877 479.143 194.252 478.995 194.598C478.508 195.707 477.814 196.712 476.95 197.56C475.356 199.171 473.627 200.642 471.784 201.959C469.979 203.292 468.106 204.511 466.223 205.705C464.34 206.902 462.422 208.031 460.501 209.158L460.646 209.056C459.605 209.903 458.452 210.604 457.22 211.138C455.96 211.702 454.599 212.006 453.218 212.032C451.772 212.044 450.354 211.632 449.138 210.848C447.989 210.064 447.013 209.052 446.271 207.876L447.074 208.345C435.421 207.657 423.778 206.821 412.136 205.963C406.314 205.557 400.496 205.08 394.677 204.614C388.858 204.16 383.042 203.645 377.227 203.113C377.202 203.111 377.179 203.099 377.163 203.079C377.146 203.06 377.138 203.036 377.14 203.01C377.141 202.985 377.152 202.962 377.171 202.945C377.19 202.928 377.214 202.919 377.239 202.92C383.075 203.104 388.91 203.306 394.741 203.567C400.573 203.818 406.406 204.058 412.234 204.367C423.894 204.943 435.551 205.54 447.2 206.284C447.361 206.295 447.517 206.343 447.657 206.425C447.796 206.506 447.915 206.619 448.003 206.754C448.587 207.688 449.354 208.494 450.259 209.123C451.141 209.702 452.172 210.014 453.227 210.02C454.339 210.01 455.438 209.777 456.458 209.334C457.516 208.891 458.509 208.309 459.413 207.604L459.45 207.575C459.484 207.548 459.52 207.524 459.558 207.503C463.402 205.338 467.196 203.079 470.797 200.581C472.593 199.366 474.283 198 475.849 196.5C476.589 195.812 477.197 194.995 477.642 194.088C477.727 193.931 477.778 193.759 477.792 193.581C477.807 193.403 477.784 193.225 477.725 193.056C477.633 192.906 477.512 192.776 477.369 192.673C477.226 192.57 477.063 192.497 476.892 192.457L476.835 192.442C476.704 192.407 476.587 192.333 476.5 192.229C476.413 192.125 476.361 191.997 476.35 191.862C476.339 191.727 476.371 191.592 476.44 191.476C476.509 191.359 476.613 191.267 476.737 191.212C481.116 189.347 484.867 186.264 487.545 182.329C487.704 182.079 487.868 181.832 488.016 181.576C488.164 181.376 488.268 181.146 488.318 180.903C488.341 180.683 488.289 180.461 488.169 180.275C488.049 180.089 487.869 179.95 487.659 179.88C487.448 179.81 487.219 179.818 487.013 179.901C486.774 179.995 486.473 180.141 486.206 180.258L484.556 181.002L477.958 183.977C473.577 186 469.202 188.034 464.86 190.143L451.82 196.437C451.706 196.492 451.579 196.515 451.452 196.501L451.42 196.498C445.873 195.896 440.339 195.197 434.806 194.49L418.224 192.235C412.694 191.508 407.179 190.659 401.657 189.863C398.896 189.468 396.138 189.051 393.383 188.61L385.116 187.294C385.091 187.29 385.069 187.276 385.054 187.256C385.038 187.236 385.032 187.211 385.035 187.186C385.038 187.161 385.051 187.138 385.071 187.122C385.091 187.106 385.116 187.099 385.141 187.102L385.141 187.102Z" fill="#020202"/>
<path d="M462.779 199.349L476.564 190.954C476.673 190.887 476.794 190.843 476.92 190.823C477.045 190.803 477.174 190.809 477.298 190.839C477.422 190.869 477.539 190.923 477.642 190.998C477.745 191.073 477.832 191.168 477.898 191.277C477.964 191.386 478.009 191.507 478.028 191.633C478.048 191.758 478.042 191.887 478.012 192.011C477.982 192.135 477.927 192.251 477.852 192.354C477.777 192.457 477.682 192.544 477.573 192.61C477.539 192.63 477.505 192.648 477.47 192.664L462.779 199.349Z" fill="#020202"/>
<path d="M314.889 170.842C315.069 169.336 315.386 167.93 315.662 166.513L316.071 164.392L316.427 162.215C316.894 163.667 316.958 165.218 316.61 166.703C316.457 167.439 316.241 168.16 315.963 168.858C315.693 169.563 315.332 170.23 314.889 170.842Z" fill="#020202"/>
<path d="M330.092 161.019C328.361 162.684 326.169 163.789 323.8 164.19C321.432 164.59 318.998 164.269 316.816 163.266C315.709 162.726 314.7 162.004 313.833 161.13C312.954 160.266 312.22 159.266 311.659 158.169C311.375 157.616 311.139 157.039 310.955 156.446C310.873 156.167 310.774 155.789 310.72 155.634C310.616 155.342 310.528 155.045 310.456 154.744C310.218 153.528 310.173 152.283 310.324 151.054C310.612 148.729 311.134 146.439 311.88 144.219C312.602 142.009 313.519 139.868 314.619 137.821C315.207 136.815 315.851 135.842 316.547 134.908C317.212 133.967 317.913 133.055 318.617 132.146C320.012 130.302 321.558 128.577 323.239 126.988C323.288 126.942 323.349 126.909 323.415 126.894C323.481 126.878 323.55 126.88 323.615 126.9C323.68 126.919 323.739 126.956 323.785 127.005C323.832 127.055 323.864 127.116 323.879 127.182L323.887 127.213C324.745 131.065 326.177 134.765 328.136 138.19C329.077 139.848 330.292 141.333 331.731 142.582C333.093 143.767 334.827 144.437 336.632 144.477L336.508 144.483C337.39 144.392 338.283 144.455 339.144 144.668C340.124 144.885 340.995 145.44 341.606 146.236C342.168 147.073 342.419 148.08 342.316 149.083C342.27 149.523 342.2 149.96 342.105 150.392L341.718 151.59C341.122 153.169 340.166 154.586 338.926 155.73C338.299 156.303 337.601 156.792 336.849 157.186C336.055 157.624 335.176 157.884 334.272 157.947L335.124 157.259C334.672 158.97 334.316 160.705 334.059 162.456C333.801 164.211 333.646 165.979 333.594 167.751C333.535 169.513 333.715 171.275 334.129 172.988C334.503 174.719 335.453 176.271 336.824 177.391C336.844 177.406 336.857 177.427 336.861 177.452C336.866 177.476 336.861 177.501 336.847 177.522C336.834 177.542 336.813 177.557 336.789 177.563C336.765 177.569 336.74 177.566 336.719 177.554C335.125 176.554 333.936 175.022 333.362 173.23C332.766 171.471 332.426 169.635 332.352 167.778C332.245 165.939 332.292 164.095 332.492 162.263C332.673 160.428 332.958 158.604 333.347 156.801C333.387 156.618 333.485 156.453 333.627 156.329C333.768 156.206 333.946 156.132 334.133 156.118L334.199 156.113C334.816 156.018 335.407 155.801 335.938 155.473C336.531 155.146 337.08 154.744 337.57 154.276C338.554 153.316 339.31 152.147 339.781 150.855C340.306 149.568 340.471 148.161 339.935 147.435C339.463 146.67 337.97 146.327 336.725 146.414L336.656 146.419L336.6 146.42C334.365 146.321 332.235 145.445 330.577 143.944C329.022 142.522 327.74 140.827 326.794 138.943C325.848 137.129 325.082 135.227 324.506 133.264C323.912 131.326 323.447 129.35 323.113 127.349L323.761 127.575C322.025 129.043 320.456 130.697 319.08 132.507C317.66 134.275 316.4 136.166 315.313 138.156C314.395 140.225 313.661 142.371 313.119 144.569C312.585 146.748 312.217 148.965 312.018 151.2C311.906 152.251 311.951 153.313 312.151 154.351C312.211 154.596 312.276 154.817 312.369 155.109L312.597 155.951C312.743 156.455 312.932 156.945 313.164 157.415C314.104 159.338 315.608 160.927 317.477 161.97C319.455 162.965 321.672 163.388 323.878 163.194C326.084 163 328.192 162.196 329.967 160.871C329.988 160.856 330.014 160.85 330.039 160.853C330.065 160.857 330.087 160.871 330.103 160.891C330.117 160.911 330.123 160.934 330.121 160.957C330.119 160.981 330.109 161.003 330.092 161.019Z" fill="#020202"/>
<path d="M313.556 141.219C313.471 139.566 313.571 137.908 313.856 136.278C314.117 134.622 314.603 133.011 315.301 131.487C315.978 129.882 317.158 128.541 318.665 127.667C319.444 127.268 320.315 127.08 321.19 127.121C322.027 127.197 322.844 127.424 323.6 127.79C322.813 127.61 322.004 127.544 321.198 127.595C320.43 127.668 319.689 127.918 319.034 128.326C317.763 129.226 316.771 130.466 316.173 131.903C315.504 133.361 314.974 134.878 314.591 136.436C314.192 138.004 313.842 139.597 313.556 141.219Z" fill="#020202"/>
<path d="M317.796 143.561C318.214 143.547 318.61 143.371 318.901 143.07C319.192 142.769 319.354 142.367 319.354 141.948C319.354 141.53 319.192 141.128 318.901 140.827C318.61 140.526 318.214 140.349 317.796 140.335C317.378 140.349 316.981 140.526 316.691 140.827C316.4 141.128 316.237 141.53 316.237 141.948C316.237 142.367 316.4 142.769 316.691 143.07C316.981 143.371 317.378 143.547 317.796 143.561V143.561Z" fill="#020202"/>
<path d="M326.278 145.944C326.696 145.929 327.092 145.753 327.383 145.452C327.674 145.151 327.836 144.749 327.836 144.331C327.836 143.912 327.674 143.51 327.383 143.209C327.092 142.908 326.696 142.732 326.278 142.717C325.86 142.732 325.463 142.908 325.173 143.209C324.882 143.51 324.719 143.912 324.719 144.331C324.719 144.749 324.882 145.151 325.173 145.452C325.463 145.753 325.86 145.929 326.278 145.944V145.944Z" fill="#020202"/>
<path d="M315.196 137.681C315.605 137.316 316.116 137.085 316.661 137.018C317.188 136.933 317.728 136.96 318.245 137.097C318.77 137.219 319.259 137.461 319.674 137.806C320.088 138.15 320.417 138.586 320.633 139.08C320.135 139.027 319.642 138.939 319.158 138.817C318.718 138.704 318.292 138.619 317.878 138.502C317.038 138.266 316.232 138.066 315.196 137.681Z" fill="#020202"/>
<path d="M325.976 140.455C326.317 140.124 326.753 139.909 327.223 139.84C327.669 139.757 328.129 139.773 328.568 139.887C329.023 139.986 329.445 140.198 329.795 140.504C330.145 140.81 330.411 141.2 330.569 141.637C330.139 141.634 329.71 141.593 329.286 141.516C328.912 141.447 328.558 141.386 328.212 141.294C327.438 141.098 326.688 140.817 325.976 140.455V140.455Z" fill="#020202"/>
<path d="M317.629 145.703C318.184 146.285 318.843 146.758 319.572 147.096C319.892 147.269 320.25 147.417 320.623 147.612C321.057 147.798 321.471 148.025 321.861 148.291C321.426 148.565 320.925 148.715 320.412 148.725C319.892 148.738 319.376 148.623 318.911 148.388C318.419 148.143 318.015 147.752 317.753 147.269C317.614 147.034 317.531 146.772 317.51 146.5C317.488 146.229 317.529 145.956 317.629 145.703V145.703Z" fill="#020202"/>
<path d="M319.633 156.947C320.032 157.056 320.451 157.073 320.858 156.995C321.264 156.916 321.648 156.746 321.978 156.496C322.531 156.015 322.886 155.347 322.976 154.62C323.065 153.893 322.882 153.158 322.462 152.558C322.085 152.104 321.574 151.781 321.002 151.635C320.43 151.488 319.827 151.526 319.278 151.743C318.621 152.065 318.107 152.619 317.833 153.298C317.56 153.977 317.548 154.733 317.798 155.421C317.967 155.799 318.22 156.133 318.538 156.398C318.856 156.662 319.231 156.85 319.633 156.947V156.947ZM319.633 156.947C318.797 156.746 318.062 156.249 317.564 155.548C317.052 154.775 316.834 153.845 316.948 152.925C316.999 152.419 317.152 151.928 317.397 151.483C317.642 151.038 317.974 150.646 318.374 150.332C318.82 150.017 319.328 149.802 319.865 149.704C320.401 149.605 320.953 149.624 321.481 149.76C322.01 149.896 322.502 150.146 322.924 150.492C323.346 150.837 323.688 151.271 323.925 151.762C324.123 152.23 324.225 152.733 324.225 153.241C324.224 153.748 324.121 154.251 323.922 154.718C323.578 155.578 322.939 156.287 322.12 156.718C321.346 157.093 320.462 157.174 319.633 156.947Z" fill="#020202"/>
<path d="M323.555 138.875C323.932 138.862 324.288 138.704 324.55 138.433C324.812 138.162 324.958 137.8 324.958 137.424C324.958 137.047 324.812 136.685 324.55 136.415C324.288 136.144 323.932 135.985 323.555 135.972C323.179 135.985 322.823 136.144 322.561 136.415C322.299 136.685 322.153 137.047 322.153 137.424C322.153 137.8 322.299 138.162 322.561 138.433C322.823 138.704 323.179 138.862 323.555 138.875V138.875Z" fill="#B21919"/>
<path d="M292.859 223.164C293.508 223.686 294.23 224.109 295.002 224.418C295.753 224.718 296.533 224.936 297.33 225.071C298.137 225.212 298.953 225.301 299.771 225.337L301.029 225.378C301.451 225.379 301.877 225.376 302.318 225.415C301.918 225.587 301.503 225.717 301.086 225.85C300.662 225.941 300.234 226.037 299.799 226.092C298.92 226.196 298.03 226.173 297.158 226.022C296.273 225.868 295.425 225.551 294.656 225.086C293.88 224.638 293.255 223.969 292.859 223.164V223.164Z" fill="#020202"/>
<path d="M322.331 224.15C323.6 224.781 324.929 225.286 326.296 225.657C327.637 226.027 329.017 226.231 330.407 226.267C331.793 226.322 333.18 226.186 334.529 225.864C335.907 225.535 337.253 225.084 338.551 224.517C337.973 224.955 337.37 225.357 336.744 225.722C336.103 226.074 335.429 226.365 334.733 226.591C333.333 227.071 331.856 227.289 330.377 227.234C327.42 227.162 324.579 226.073 322.331 224.15V224.15Z" fill="#020202"/>
<path d="M290.333 178.34C294.297 171.477 298.28 164.708 302.009 157.794C303.9 154.352 305.655 150.845 307.405 147.329C309.118 143.793 310.701 140.205 312.281 136.562C311.448 140.448 310.279 144.255 308.787 147.939C307.293 151.621 305.599 155.218 303.711 158.714C301.798 162.192 299.765 165.603 297.539 168.885C295.345 172.19 292.938 175.348 290.333 178.34V178.34Z" fill="#020202"/>
<path d="M323.632 126.134C323.297 125.275 322.82 124.479 322.222 123.778C321.979 123.482 321.672 123.244 321.325 123.082C320.977 122.919 320.597 122.838 320.214 122.842C319.409 122.936 318.639 123.226 317.973 123.688C317.222 124.187 316.5 124.727 315.809 125.306C314.315 126.47 312.937 127.778 311.696 129.21C310.498 130.697 309.483 132.322 308.671 134.05C308.466 134.48 308.247 134.901 308.056 135.335C307.88 135.777 307.698 136.215 307.509 136.647C307.114 137.504 306.767 138.376 306.431 139.253C305.775 141 305.212 142.782 304.743 144.589C303.728 148.211 303.252 151.964 303.331 155.725L303.332 155.737C303.333 155.76 303.326 155.783 303.311 155.801C303.297 155.819 303.277 155.831 303.254 155.836C303.232 155.841 303.209 155.837 303.188 155.826C303.168 155.815 303.153 155.797 303.145 155.776C301.897 151.999 301.756 147.945 302.739 144.092C303.222 142.178 303.898 140.318 304.756 138.54C305.151 137.642 305.609 136.773 306.126 135.939C306.619 135.094 307.165 134.282 307.761 133.506C308.318 132.707 308.902 131.933 309.498 131.171C310.098 130.412 310.613 129.594 311.199 128.827C312.264 127.183 313.439 125.612 314.714 124.124C315.41 123.378 316.211 122.736 317.09 122.218C318.037 121.616 319.141 121.311 320.262 121.343C320.843 121.394 321.402 121.588 321.889 121.908C322.377 122.228 322.778 122.663 323.057 123.174C323.562 124.067 323.826 125.076 323.823 126.102C323.823 126.125 323.816 126.147 323.801 126.165C323.787 126.182 323.767 126.194 323.745 126.199C323.723 126.203 323.7 126.2 323.68 126.19C323.66 126.179 323.644 126.162 323.635 126.141L323.632 126.134Z" fill="#020202"/>
<path d="M322.65 123.625C322.624 122.717 322.729 121.809 322.961 120.93C323.179 120.017 323.564 119.152 324.098 118.38C324.66 117.566 325.425 116.914 326.317 116.489C327.219 116.077 328.201 115.874 329.192 115.893C331.076 115.977 332.92 116.459 334.605 117.306C336.261 118.072 337.818 119.037 339.241 120.179C342.025 122.478 344.412 125.22 346.306 128.294C348.249 131.295 349.875 134.49 351.158 137.827C352.47 141.19 353.293 144.724 353.603 148.321C353.773 150.144 353.776 151.979 353.611 153.802L353.406 155.197L353.202 156.468L352.997 157.727C352.95 158.148 352.947 158.574 352.905 158.996C352.443 165.949 354.717 172.807 359.241 178.107L359.247 178.116C359.263 178.134 359.271 178.158 359.27 178.182C359.269 178.206 359.259 178.229 359.242 178.246C359.225 178.263 359.202 178.273 359.178 178.274C359.153 178.275 359.13 178.267 359.111 178.251C356.335 175.874 354.144 172.887 352.711 169.524C351.277 166.162 350.638 162.514 350.845 158.864C350.869 158.404 350.893 157.943 350.942 157.487L351.167 156.127L351.609 153.554C351.823 151.859 351.882 150.147 351.786 148.44C351.608 144.964 351.06 141.518 350.151 138.158C349.254 134.759 347.777 131.541 345.786 128.644C343.747 125.818 341.207 123.389 338.291 121.48C336.884 120.498 335.406 119.62 333.87 118.855C332.398 118.079 330.795 117.584 329.143 117.393C328.36 117.332 327.573 117.431 326.829 117.684C326.091 117.969 325.431 118.426 324.906 119.019C323.819 120.346 323.107 121.939 322.843 123.633L322.842 123.639C322.838 123.663 322.825 123.684 322.806 123.698C322.787 123.713 322.763 123.72 322.74 123.718C322.716 123.716 322.693 123.706 322.677 123.689C322.66 123.672 322.651 123.649 322.65 123.625L322.65 123.625Z" fill="#020202"/>
<path d="M326.042 121.542C327.388 121.759 328.665 122.289 329.768 123.089C330.89 123.883 331.868 124.863 332.66 125.987C333.423 127.121 334.014 128.361 334.416 129.668C334.608 130.315 334.763 130.973 334.879 131.639C334.949 132.311 335.018 132.978 335.042 133.645C334.801 133.013 334.641 132.373 334.418 131.753C334.166 131.144 333.982 130.516 333.707 129.927C333.202 128.742 332.585 127.607 331.865 126.538C331.13 125.488 330.271 124.53 329.308 123.684C328.327 122.818 327.227 122.097 326.042 121.542V121.542Z" fill="#020202"/>
<path d="M343.722 156.904C343.811 158.409 343.93 159.896 344.053 161.376C344.194 162.854 344.348 164.325 344.613 165.77C344.84 167.212 345.221 168.625 345.748 169.986C346.239 171.37 347.153 172.565 348.36 173.402C346.896 172.845 345.712 171.733 345.065 170.307C344.376 168.931 343.903 167.458 343.66 165.938C343.155 162.946 343.175 159.889 343.722 156.904V156.904Z" fill="#020202"/>
<path d="M304.333 170.361C305.106 168.49 306.039 166.751 306.937 164.998C307.4 164.129 307.834 163.252 308.27 162.375C308.723 161.501 309.084 160.582 309.347 159.633C309.458 160.655 309.33 161.688 308.973 162.652C308.658 163.614 308.265 164.547 307.796 165.444C306.878 167.237 305.713 168.893 304.333 170.361V170.361Z" fill="#020202"/>
<path d="M315.973 167.356C316.116 167.643 316.28 167.919 316.462 168.182C316.47 168.193 316.475 168.206 316.477 168.219C316.48 168.233 316.48 168.247 316.477 168.26C316.475 168.273 316.469 168.286 316.462 168.297C316.454 168.308 316.444 168.318 316.433 168.326C316.422 168.333 316.409 168.338 316.396 168.341C316.382 168.344 316.369 168.344 316.355 168.341C316.342 168.338 316.329 168.333 316.318 168.325C316.307 168.318 316.297 168.308 316.289 168.297L316.282 168.283C316.145 167.986 316.042 167.675 315.973 167.356V167.356Z" fill="#020202"/>
<path d="M317.75 169.655C318.225 170.092 318.738 170.484 319.284 170.827C319.326 170.854 319.363 170.888 319.391 170.928C319.42 170.969 319.44 171.014 319.451 171.062C319.462 171.111 319.464 171.161 319.455 171.209C319.447 171.258 319.429 171.305 319.403 171.346C319.376 171.388 319.342 171.424 319.301 171.453C319.261 171.481 319.215 171.502 319.167 171.512C319.119 171.523 319.069 171.524 319.02 171.516C318.971 171.507 318.925 171.489 318.883 171.463L318.858 171.446C318.304 171.033 317.801 170.554 317.36 170.021C317.317 169.969 317.296 169.902 317.3 169.834C317.304 169.766 317.334 169.702 317.384 169.656C317.433 169.609 317.499 169.583 317.567 169.583C317.635 169.583 317.7 169.609 317.75 169.655V169.655Z" fill="#020202"/>
<path d="M320.996 171.703C321.613 171.893 322.218 172.103 322.825 172.311L322.893 172.334C322.952 172.354 323.006 172.385 323.053 172.426C323.099 172.468 323.137 172.517 323.165 172.573C323.192 172.629 323.208 172.69 323.212 172.752C323.216 172.814 323.208 172.876 323.188 172.935C323.167 172.994 323.136 173.048 323.095 173.095C323.054 173.142 323.004 173.18 322.948 173.207C322.892 173.234 322.831 173.25 322.769 173.254C322.707 173.258 322.645 173.25 322.586 173.229L322.58 173.227C321.929 172.995 321.277 172.764 320.636 172.513C320.53 172.472 320.445 172.391 320.397 172.287C320.349 172.184 320.344 172.066 320.381 171.959C320.418 171.851 320.496 171.762 320.597 171.711C320.698 171.659 320.816 171.649 320.925 171.682L320.996 171.703Z" fill="#020202"/>
<path d="M324.726 172.685C325.373 172.743 326.021 172.795 326.67 172.871L326.715 172.876C326.829 172.89 326.933 172.947 327.006 173.035C327.078 173.124 327.114 173.237 327.105 173.352C327.096 173.466 327.042 173.572 326.956 173.648C326.87 173.724 326.758 173.764 326.644 173.759C325.963 173.729 325.281 173.675 324.6 173.627C324.537 173.623 324.477 173.606 324.421 173.578C324.365 173.55 324.315 173.512 324.274 173.465C324.192 173.37 324.151 173.246 324.159 173.12C324.168 172.994 324.227 172.878 324.322 172.795C324.417 172.712 324.541 172.671 324.666 172.68L324.673 172.68L324.726 172.685Z" fill="#020202"/>
<path d="M328.635 172.91C329.291 172.876 329.949 172.851 330.611 172.837L330.63 172.836C330.698 172.835 330.764 172.859 330.814 172.905C330.865 172.95 330.897 173.013 330.903 173.08C330.909 173.148 330.889 173.216 330.848 173.269C330.806 173.323 330.745 173.359 330.678 173.37C330.015 173.477 329.348 173.574 328.677 173.662C328.628 173.669 328.578 173.666 328.53 173.653C328.482 173.64 328.437 173.618 328.397 173.588C328.358 173.557 328.325 173.52 328.3 173.477C328.275 173.434 328.259 173.386 328.253 173.337C328.246 173.288 328.25 173.238 328.263 173.19C328.275 173.142 328.298 173.097 328.328 173.058C328.358 173.018 328.396 172.985 328.439 172.961C328.482 172.936 328.53 172.92 328.579 172.914L328.608 172.911L328.635 172.91Z" fill="#020202"/>
<path d="M332.628 172.687C332.948 172.647 333.272 172.626 333.597 172.599C333.288 172.698 332.979 172.804 332.666 172.891C332.653 172.895 332.639 172.896 332.625 172.894C332.612 172.893 332.599 172.888 332.586 172.882C332.574 172.875 332.564 172.866 332.555 172.855C332.547 172.844 332.541 172.832 332.537 172.819C332.533 172.805 332.532 172.791 332.534 172.778C332.536 172.764 332.54 172.751 332.547 172.739C332.554 172.727 332.563 172.717 332.574 172.708C332.585 172.7 332.597 172.694 332.61 172.69L332.628 172.687Z" fill="#020202"/>
<path d="M302.472 60.7256L301.766 60.7547C301.969 60.745 302.211 60.7256 302.472 60.7256Z" fill="#020202"/>
<path d="M362.503 85.8977C360.934 85.1901 359.309 84.6139 357.645 84.175C355.952 83.7208 354.197 83.5443 352.448 83.6524C350.706 83.759 349.051 83.8943 347.367 84.0395L342.354 84.4751L342.132 84.4943C341.019 84.688 339.925 84.9493 338.88 85.0943C338.454 85.2129 338.009 85.2457 337.57 85.1909C337.132 85.136 336.708 84.9947 336.325 84.775C335.668 84.1395 335.228 83.3133 335.067 82.4136C334.745 81.4178 334.537 80.3886 334.447 79.3458C334.409 78.8232 334.438 78.3296 334.38 77.6425C334.343 77.2228 334.214 76.8164 334.002 76.4522C333.885 76.2596 333.741 76.0839 333.576 75.9296C333.398 75.7604 333.192 75.623 332.967 75.5232C332.306 75.2762 331.598 75.1803 330.896 75.2425C330.298 75.2666 329.704 75.3312 329.115 75.436C326.864 75.8344 324.657 76.4502 322.525 77.2748C320.513 78.1568 318.451 78.9195 316.35 79.5587C314.177 80.1171 312.035 80.7923 309.934 81.5814C305.879 83.0523 301.814 84.6783 297.459 84.8814C297.779 84.2814 298.108 83.6911 298.427 83.0911C300.198 79.8297 302.53 76.2102 305.511 69.6584C306.972 66.4453 307.94 63.9485 306.779 62.3032C305.831 60.9678 303.885 60.7259 302.54 60.7259L354.335 58.7129C351.707 59.1042 349.339 60.516 347.745 62.6421C347.121 63.4181 346.729 64.3538 346.612 65.3422C346.409 68.2649 349.7 70.5101 352.119 72.523C352.119 72.523 358.961 78.2426 362.503 85.8977Z" fill="#020202"/>
<path d="M362.503 85.8976C360.868 85.414 359.207 85.0199 357.529 84.717C355.876 84.4494 354.192 84.433 352.535 84.6685L347.406 85.3944L342.228 86.0814L342.441 86.0718C341.377 86.304 340.312 86.5847 339.151 86.7976C338.535 86.9136 337.909 86.959 337.283 86.9331C336.563 86.8957 335.866 86.6614 335.27 86.2556C334.694 85.8423 334.229 85.294 333.915 84.6588C333.655 84.1055 333.438 83.5328 333.267 82.9458C332.899 81.8213 332.659 80.6592 332.55 79.4811C332.502 78.9006 332.512 78.2714 332.463 77.8554C332.462 77.7162 332.425 77.5797 332.357 77.4587C332.328 77.4176 332.295 77.3787 332.26 77.3424C332.234 77.3196 332.204 77.3001 332.173 77.2844C331.781 77.1661 331.371 77.1202 330.963 77.1489C330.447 77.1708 329.933 77.2257 329.425 77.3134C327.289 77.6862 325.188 78.2365 323.144 78.9586C321.059 79.8127 318.918 80.524 316.737 81.0878C314.54 81.5426 312.459 82.1039 310.321 82.7524C308.184 83.4269 306.013 83.989 303.817 84.4363C301.725 84.8992 299.578 85.0654 297.44 84.9298C295.311 88.946 293.356 93.1365 292.823 98.5077C292.494 101.798 291.972 107.14 295.059 111.95C298.591 117.457 304.766 119.005 308.656 119.982C314.801 121.521 320.55 120.611 331.815 118.724C340.641 117.244 345.151 116.46 349.622 114.263C354.528 111.853 361.835 108.263 364.167 100.695C366.248 93.9785 363.316 87.6395 362.503 85.8976ZM331.225 95.0043L320.124 96.3303C319.205 96.4463 318.276 96.5431 317.327 96.6303C316.379 96.7076 315.44 96.8335 314.482 96.8239C313.524 96.8335 312.576 96.8722 311.618 96.8045C311.134 96.7755 310.659 96.7658 310.185 96.727L308.753 96.5238C306.831 96.2718 304.966 95.6959 303.237 94.8205C302.378 94.362 301.591 93.7782 300.904 93.0882C300.22 92.4099 299.729 91.5614 299.482 90.63C300.408 92.2135 301.886 93.3991 303.633 93.9592C305.337 94.5694 307.12 94.9312 308.927 95.0334C312.594 95.1877 316.266 94.9802 319.892 94.414C323.618 93.9786 327.353 93.6302 331.108 93.4947C334.865 93.2913 338.632 93.4273 342.364 93.9012C338.618 94.1527 334.921 94.5979 331.225 95.0043V95.0043Z" fill="#020202"/>
<path d="M296.656 60.5929L360.892 58.2847" stroke="#020202" stroke-width="2.90331" stroke-linecap="round" stroke-linejoin="round"/>
<path d="M297.459 84.8813C297.459 84.8993 297.452 84.9165 297.44 84.9298C297.333 84.9201 297.237 84.9104 297.13 84.9007C297.237 84.9007 297.353 84.8911 297.459 84.8813Z" fill="white"/>
<path d="M295.836 71.3042C295.836 71.3042 279.128 82.3727 286.726 86.1072C289.673 87.5555 291.971 82.0842 292.334 80.2614C292.761 77.9712 293.502 75.7506 294.534 73.6622C294.9 72.9439 295.331 72.1568 295.836 71.3042Z" fill="#020202"/>
<path d="M364.891 63.793C364.891 63.793 379.974 71.244 374.041 75.1567C371.741 76.6741 369.249 72.361 368.754 70.8815C368.156 69.0196 367.305 67.2488 366.224 65.6189C365.843 65.0594 365.402 64.4495 364.891 63.793Z" fill="#020202"/>
<path d="M358.931 357.67C359.307 357.657 359.663 357.498 359.925 357.227C360.187 356.957 360.333 356.595 360.333 356.218C360.333 355.842 360.187 355.48 359.925 355.209C359.663 354.938 359.307 354.78 358.931 354.767C358.554 354.78 358.198 354.938 357.936 355.209C357.675 355.48 357.528 355.842 357.528 356.218C357.528 356.595 357.675 356.957 357.936 357.227C358.198 357.498 358.554 357.657 358.931 357.67V357.67Z" fill="#020202"/>
<path d="M365.55 358.367C365.927 358.354 366.283 358.195 366.545 357.924C366.807 357.653 366.953 357.292 366.953 356.915C366.953 356.538 366.807 356.177 366.545 355.906C366.283 355.635 365.927 355.476 365.55 355.463C365.174 355.476 364.817 355.635 364.556 355.906C364.294 356.177 364.148 356.538 364.148 356.915C364.148 357.292 364.294 357.653 364.556 357.924C364.817 358.195 365.174 358.354 365.55 358.367V358.367Z" fill="#020202"/>
<path d="M372.867 356.973C373.243 356.96 373.599 356.802 373.861 356.531C374.123 356.26 374.269 355.898 374.269 355.521C374.269 355.145 374.123 354.783 373.861 354.512C373.599 354.241 373.243 354.083 372.867 354.07C372.49 354.083 372.134 354.241 371.872 354.512C371.61 354.783 371.464 355.145 371.464 355.521C371.464 355.898 371.61 356.26 371.872 356.531C372.134 356.802 372.49 356.96 372.867 356.973Z" fill="#020202"/>
<path d="M379.835 351.747C380.211 351.734 380.567 351.575 380.829 351.305C381.091 351.034 381.237 350.672 381.237 350.295C381.237 349.919 381.091 349.557 380.829 349.286C380.567 349.015 380.211 348.857 379.835 348.844C379.458 348.857 379.102 349.015 378.84 349.286C378.578 349.557 378.432 349.919 378.432 350.295C378.432 350.672 378.578 351.034 378.84 351.305C379.102 351.575 379.458 351.734 379.835 351.747V351.747Z" fill="#020202"/>
<path d="M386.802 348.263C387.179 348.25 387.535 348.092 387.797 347.821C388.058 347.55 388.205 347.188 388.205 346.812C388.205 346.435 388.058 346.073 387.797 345.802C387.535 345.532 387.179 345.373 386.802 345.36C386.426 345.373 386.07 345.532 385.808 345.802C385.546 346.073 385.4 346.435 385.4 346.812C385.4 347.188 385.546 347.55 385.808 347.821C386.07 348.092 386.426 348.25 386.802 348.263V348.263Z" fill="#020202"/>
<path d="M394.467 346.87C394.844 346.857 395.2 346.698 395.462 346.427C395.723 346.156 395.869 345.795 395.869 345.418C395.869 345.041 395.723 344.68 395.462 344.409C395.2 344.138 394.844 343.979 394.467 343.966C394.091 343.979 393.734 344.138 393.473 344.409C393.211 344.68 393.065 345.041 393.065 345.418C393.065 345.795 393.211 346.156 393.473 346.427C393.734 346.698 394.091 346.857 394.467 346.87V346.87Z" fill="#020202"/>
<path d="M355.279 346.811C358.794 346.508 362.249 345.715 365.544 344.454C366.36 344.156 367.137 343.769 367.93 343.427C368.688 343.016 369.478 342.662 370.192 342.18C371.664 341.302 373.044 340.278 374.312 339.123C377.059 336.661 380.282 334.788 383.782 333.621C387.209 332.42 390.842 331.915 394.467 332.136C390.977 332.669 387.568 333.642 384.323 335.031C383.517 335.363 382.749 335.772 381.965 336.14C381.215 336.572 380.435 336.951 379.726 337.446C378.265 338.353 376.89 339.392 375.618 340.55C372.86 343.021 369.583 344.842 366.028 345.878C362.552 346.946 358.888 347.264 355.279 346.811V346.811Z" fill="#020202"/>
<path d="M343.225 178.852H343.177C341.01 178.547 338.869 178.085 336.77 177.468C336.77 177.468 314.453 192.449 314.511 171.139C314.511 171.139 297.053 176.539 285.498 179.684C285.499 179.684 285.5 179.684 285.501 179.685C285.502 179.685 285.504 179.686 285.504 179.687C285.505 179.688 285.506 179.689 285.507 179.69C285.507 179.691 285.507 179.692 285.507 179.694C285.991 181.723 286.36 183.778 286.61 185.849C286.852 187.92 287.017 190.001 287.104 192.091C287.269 194.179 287.249 196.277 287.046 198.362C286.795 200.437 286.285 202.473 285.527 204.42C286.969 203.917 288.653 203.269 290.627 202.446L289.882 212.172C289.882 212.172 334.476 180.216 343.225 178.852ZM285.12 201.314C285.072 200.269 285.12 199.252 285.11 198.217C285.14 196.175 285.449 194.143 285.556 192.081C285.662 190.03 285.691 187.975 285.643 185.917C285.633 183.855 285.523 181.797 285.314 179.742C281.83 180.681 278.907 181.426 277.184 181.736C274.874 189.366 274.857 197.507 277.136 205.146C277.085 205.289 277.087 205.445 277.142 205.587C277.374 206.153 278.725 206.811 285.333 204.498C285.333 204.498 285.323 204.498 285.333 204.488C285.314 204.478 285.314 204.469 285.314 204.449C285.192 203.408 285.128 202.362 285.12 201.314V201.314ZM281.239 183.7C281.615 183.714 281.972 183.872 282.233 184.143C282.494 184.414 282.64 184.776 282.64 185.152C282.64 185.528 282.494 185.89 282.233 186.161C281.972 186.431 281.615 186.59 281.239 186.604C280.863 186.59 280.507 186.431 280.246 186.161C279.985 185.89 279.838 185.528 279.838 185.152C279.838 184.776 279.985 184.414 280.246 184.143C280.507 183.872 280.863 183.714 281.239 183.7H281.239ZM281.414 203.153C281.037 203.139 280.681 202.98 280.42 202.71C280.159 202.439 280.013 202.077 280.013 201.701C280.013 201.325 280.159 200.963 280.42 200.692C280.681 200.421 281.037 200.263 281.414 200.249C281.79 200.263 282.146 200.421 282.407 200.692C282.668 200.963 282.814 201.325 282.814 201.701C282.814 202.077 282.668 202.439 282.407 202.71C282.146 202.98 281.79 203.139 281.414 203.153H281.414ZM281.414 197.927C281.037 197.913 280.681 197.754 280.42 197.484C280.159 197.213 280.013 196.851 280.013 196.475C280.013 196.099 280.159 195.737 280.42 195.466C280.681 195.195 281.037 195.037 281.414 195.023C281.79 195.037 282.146 195.195 282.407 195.466C282.669 195.737 282.815 196.099 282.815 196.475C282.815 196.851 282.669 197.213 282.407 197.484C282.146 197.754 281.79 197.913 281.414 197.927H281.414ZM281.414 192.178C281.038 192.165 280.681 192.006 280.42 191.735C280.159 191.464 280.013 191.103 280.013 190.726C280.013 190.35 280.159 189.988 280.42 189.718C280.681 189.447 281.038 189.288 281.414 189.275C281.79 189.288 282.146 189.447 282.407 189.718C282.668 189.988 282.814 190.35 282.814 190.726C282.814 191.103 282.668 191.464 282.407 191.735C282.146 192.006 281.79 192.165 281.414 192.178L281.414 192.178Z" fill="#020202"/>
<path d="M356.755 205.814C351.848 219.769 357.442 240.286 357.442 240.286C356.574 240.754 355.655 241.121 354.703 241.38C353.584 241.699 352.446 241.951 351.296 242.134C348.271 242.604 345.22 242.888 342.161 242.986C342.161 242.986 362.29 187.901 362.523 180.604L362.203 180.342C368.581 180.555 374.591 180.555 378.588 180.516C378.178 180.874 377.788 181.252 377.417 181.649C377 182.152 376.555 182.646 376.168 183.168C375.771 183.691 375.413 184.233 375.036 184.765L374.01 186.43C372.761 188.696 371.671 191.047 370.749 193.465C369.752 195.846 368.791 198.236 367.865 200.636C366.974 203.046 366.074 205.456 365.271 207.904L365.358 207.943C362.421 207.553 359.535 206.839 356.755 205.814Z" fill="#020202"/>
<path d="M383.504 180.429C383.504 180.429 381.781 180.478 378.955 180.516C377.813 182.8 376.778 185.055 375.713 187.329C374.658 189.652 373.313 191.83 372.152 194.114C370.99 196.397 369.858 198.701 368.755 201.014C367.632 203.307 366.558 205.64 365.455 207.953C366.2 208.04 366.965 208.098 367.719 208.117C371.842 208.224 375.858 207.14 377.233 203.017C380.407 193.475 388.962 186.787 383.504 180.429ZM370.952 204.546C370.576 204.533 370.22 204.374 369.958 204.103C369.697 203.832 369.551 203.471 369.551 203.094C369.551 202.718 369.697 202.357 369.958 202.086C370.22 201.815 370.576 201.656 370.952 201.643C371.328 201.656 371.684 201.815 371.945 202.086C372.206 202.357 372.353 202.718 372.353 203.094C372.353 203.471 372.206 203.832 371.945 204.103C371.684 204.374 371.328 204.533 370.952 204.546H370.952ZM374.784 198.623C374.408 198.61 374.052 198.451 373.79 198.18C373.529 197.91 373.383 197.548 373.383 197.172C373.383 196.795 373.529 196.434 373.79 196.163C374.052 195.892 374.408 195.733 374.784 195.72C375.16 195.733 375.516 195.892 375.778 196.163C376.039 196.434 376.185 196.795 376.185 197.172C376.185 197.548 376.039 197.91 375.778 198.18C375.516 198.451 375.16 198.61 374.784 198.623H374.784ZM378.442 192.178C378.066 192.165 377.71 192.006 377.449 191.735C377.188 191.464 377.042 191.103 377.042 190.726C377.042 190.35 377.188 189.988 377.449 189.718C377.71 189.447 378.066 189.288 378.442 189.275C378.818 189.288 379.174 189.447 379.436 189.718C379.697 189.988 379.843 190.35 379.843 190.726C379.843 191.103 379.697 191.464 379.436 191.735C379.174 192.006 378.818 192.165 378.442 192.178H378.442ZM381.229 185.558C380.853 185.545 380.497 185.386 380.236 185.115C379.975 184.845 379.829 184.483 379.829 184.107C379.829 183.73 379.975 183.369 380.236 183.098C380.497 182.827 380.853 182.669 381.229 182.655C381.606 182.669 381.962 182.827 382.223 183.098C382.484 183.369 382.63 183.73 382.63 184.107C382.63 184.483 382.484 184.845 382.223 185.115C381.962 185.386 381.606 185.545 381.229 185.558H381.229Z" fill="#020202"/>
<path d="M285.497 179.684C285.437 179.705 285.376 179.721 285.314 179.732C285.31 179.708 285.317 179.684 285.331 179.664C285.345 179.644 285.367 179.63 285.391 179.626C285.413 179.622 285.435 179.626 285.454 179.636C285.474 179.647 285.489 179.664 285.497 179.684V179.684Z" fill="white"/>
<path d="M285.526 204.42C285.524 204.441 285.518 204.461 285.507 204.478C285.496 204.504 285.476 204.524 285.451 204.535C285.426 204.546 285.397 204.546 285.372 204.537C285.354 204.529 285.341 204.515 285.333 204.498C285.333 204.498 285.323 204.498 285.333 204.488C285.391 204.469 285.459 204.449 285.526 204.42Z" fill="white"/>
<path d="M365.358 207.943C365.39 207.942 365.423 207.945 365.455 207.953C365.455 207.963 365.445 207.963 365.445 207.972L365.358 207.943Z" fill="white"/>
<path d="M379.004 180.41C378.983 180.444 378.967 180.479 378.955 180.516H378.587L378.849 180.284L379.004 180.41Z" fill="white"/>
<path d="M292.217 436.664C283.601 437.197 274.98 437.621 266.359 438.047L240.484 439.104C231.856 439.403 223.224 439.609 214.587 439.723C212.428 439.758 210.267 439.772 208.104 439.766C205.944 439.783 203.778 439.747 201.611 439.701C200.531 439.698 199.438 439.63 198.346 439.57L196.709 439.48C196.225 439.437 195.738 439.436 195.254 439.478C194.319 439.527 193.415 439.83 192.64 440.355C191.864 440.88 191.247 441.607 190.855 442.457C190.108 444.299 189.997 446.338 190.542 448.25C191.064 450.252 191.921 452.151 193.077 453.867C195.462 457.366 198.486 460.383 201.991 462.759C208.99 467.641 217.162 470.747 225.492 472.79C233.883 474.75 242.447 475.87 251.06 476.133C255.368 476.286 259.683 476.395 263.994 476.493C268.308 476.558 272.621 476.598 276.934 476.613C285.56 476.639 294.184 476.5 302.8 476.243C311.417 476.001 320.02 475.551 328.61 474.894C337.194 474.232 345.755 473.283 354.23 471.875C362.703 470.583 371.042 468.529 379.146 465.737C383.151 464.32 386.995 462.485 390.615 460.263C392.399 459.142 394.092 457.882 395.676 456.494C397.264 455.148 398.675 453.608 399.877 451.909C401.062 450.286 401.783 448.371 401.96 446.37C402.032 444.378 401.438 442.42 400.273 440.803C399.111 439.117 397.593 437.706 395.828 436.668C394.043 435.636 392.066 434.98 390.018 434.74C388.993 434.608 387.957 434.583 386.926 434.665C386.407 434.688 385.902 434.778 385.381 434.847L383.777 435.108C381.639 435.447 379.499 435.751 377.356 436.038C373.072 436.61 368.781 437.112 364.481 437.542C360.182 437.968 355.872 438.301 351.553 438.494C349.393 438.584 347.231 438.646 345.067 438.601C343.985 438.579 342.903 438.529 341.823 438.43C340.733 438.356 339.659 438.13 338.631 437.758C338.608 437.748 338.59 437.73 338.58 437.707C338.57 437.684 338.569 437.658 338.578 437.635C338.586 437.611 338.604 437.592 338.627 437.582C338.649 437.571 338.675 437.569 338.699 437.577L338.71 437.581C340.783 438.126 342.929 438.342 345.069 438.222C347.221 438.206 349.372 438.083 351.521 437.932C355.818 437.625 360.103 437.145 364.382 436.633C368.661 436.12 372.93 435.536 377.19 434.881C379.319 434.553 381.445 434.208 383.562 433.83L385.147 433.54C385.693 433.454 386.25 433.343 386.809 433.304C387.929 433.189 389.058 433.19 390.177 433.307C392.433 433.535 394.618 434.225 396.596 435.334C398.581 436.463 400.295 438.013 401.617 439.875C403.015 441.777 403.743 444.09 403.685 446.45C403.524 448.776 402.73 451.014 401.389 452.921C400.126 454.77 398.633 456.452 396.947 457.925C395.302 459.401 393.534 460.734 391.662 461.909C387.93 464.219 383.965 466.129 379.833 467.606C375.738 469.09 371.561 470.336 367.323 471.337C363.098 472.353 358.84 473.21 354.555 473.865C345.99 475.218 337.371 476.101 328.743 476.696C311.483 477.908 294.185 477.949 276.922 477.582C272.606 477.489 268.29 477.368 263.976 477.221C259.661 477.088 255.349 476.954 251.033 476.769C242.383 476.45 233.778 475.361 225.321 473.514C216.908 471.559 208.556 468.699 201.256 463.826C197.544 461.425 194.32 458.343 191.755 454.743C190.478 452.883 189.53 450.818 188.951 448.638C188.3 446.364 188.433 443.937 189.328 441.748C189.834 440.617 190.644 439.648 191.668 438.949C192.689 438.268 193.867 437.858 195.09 437.756C195.681 437.701 196.275 437.698 196.866 437.747L198.46 437.842C199.523 437.907 200.583 437.982 201.661 437.994C203.808 438.054 205.956 438.105 208.111 438.104C210.264 438.126 212.418 438.127 214.574 438.108C223.195 438.065 231.82 437.886 240.445 437.701L266.325 437.101L292.208 436.47C292.234 436.47 292.258 436.479 292.277 436.497C292.295 436.514 292.306 436.538 292.307 436.563C292.308 436.588 292.299 436.613 292.282 436.632C292.266 436.651 292.242 436.662 292.217 436.664H292.217Z" fill="#020202"/>
<path d="M224.992 471.293C223.325 470.886 221.575 470.981 219.962 471.569C218.349 472.156 216.947 473.208 215.932 474.592C214.918 475.977 214.336 477.631 214.262 479.345C214.187 481.06 214.623 482.758 215.513 484.225C216.404 485.693 217.709 486.863 219.265 487.588C220.82 488.313 222.556 488.56 224.252 488.299C225.949 488.038 227.529 487.279 228.795 486.12C230.06 484.96 230.953 483.451 231.36 481.784C231.905 479.548 231.541 477.188 230.347 475.221C229.153 473.254 227.227 471.842 224.992 471.293ZM224.073 484.687C223.57 484.727 223.064 484.714 222.563 484.649C221.524 484.523 220.542 484.107 219.728 483.449C218.916 482.787 218.295 481.922 217.928 480.942C217.559 480.001 217.42 478.986 217.521 477.981C217.959 479.801 218.942 481.445 220.337 482.694C220.498 482.847 220.677 482.98 220.87 483.09C221.054 483.215 221.249 483.325 221.45 483.419L222.06 483.71C222.283 483.768 222.496 483.836 222.718 483.913C222.939 483.988 223.165 484.043 223.396 484.078L224.092 484.213C224.557 484.29 225.041 484.31 225.534 484.397C225.055 484.529 224.567 484.626 224.073 484.687H224.073Z" fill="#020202"/>
<path d="M197.072 459.689C197.034 459.806 196.995 459.922 196.966 460.048C196.524 461.852 196.673 463.75 197.391 465.464C198.109 467.177 199.358 468.614 200.954 469.565C202.55 470.515 204.409 470.928 206.257 470.742C208.106 470.557 209.846 469.783 211.221 468.535C206.047 466.391 201.266 463.402 197.072 459.689V459.689ZM205.356 468.709C204.853 468.746 204.347 468.73 203.847 468.661C202.805 468.533 201.82 468.118 201.001 467.461C200.196 466.796 199.578 465.932 199.211 464.954C198.842 464.013 198.703 462.998 198.805 461.993C199.243 463.811 200.221 465.454 201.611 466.706C201.777 466.857 201.959 466.99 202.153 467.103C202.338 467.227 202.532 467.337 202.734 467.432L203.343 467.722C203.566 467.78 203.779 467.848 204.002 467.925C204.219 468.009 204.447 468.065 204.679 468.09L205.366 468.225C205.84 468.303 206.324 468.322 206.818 468.409C206.337 468.539 205.849 468.639 205.356 468.709V468.709Z" fill="#020202"/>
<path d="M389.988 463.406C388.321 462.998 386.57 463.094 384.957 463.681C383.345 464.268 381.942 465.321 380.928 466.705C379.913 468.089 379.332 469.743 379.257 471.458C379.182 473.172 379.618 474.871 380.508 476.338C381.399 477.805 382.705 478.975 384.26 479.7C385.816 480.425 387.552 480.673 389.248 480.411C390.944 480.15 392.525 479.392 393.79 478.232C395.055 477.072 395.948 475.563 396.356 473.896C396.627 472.789 396.678 471.64 396.504 470.513C396.331 469.387 395.938 468.305 395.346 467.331C394.755 466.357 393.977 465.508 393.058 464.835C392.138 464.161 391.095 463.676 389.988 463.406V463.406ZM388.991 478.164C388.488 478.204 387.982 478.191 387.481 478.125C386.441 477.996 385.459 477.577 384.646 476.916C383.834 476.254 383.213 475.389 382.846 474.409C382.477 473.472 382.337 472.46 382.439 471.457C382.879 473.277 383.861 474.921 385.255 476.17C385.416 476.321 385.595 476.451 385.788 476.558C385.97 476.686 386.165 476.796 386.368 476.887L386.988 477.177C387.201 477.245 387.423 477.312 387.636 477.38C387.855 477.462 388.082 477.52 388.314 477.554L389.01 477.69C389.485 477.758 389.959 477.777 390.452 477.874C389.972 478.001 389.484 478.098 388.991 478.164V478.164Z" fill="#020202"/>
<path d="M133.571 453.492C143.261 452.684 152.955 452.463 162.649 452.384C167.496 452.378 172.344 452.396 177.191 452.526C182.039 452.629 186.888 452.857 191.737 453.211C186.891 453.611 182.045 453.886 177.199 454.037C172.352 454.214 167.505 454.279 162.658 454.319C152.964 454.334 143.269 454.206 133.571 453.492Z" fill="#020202"/>
<path d="M460.325 264.383C470.016 263.575 479.709 263.353 489.404 263.275C494.251 263.269 499.098 263.286 503.946 263.417C508.794 263.52 513.642 263.748 518.491 264.102C513.646 264.501 508.8 264.776 503.953 264.927C499.107 265.104 494.26 265.169 489.413 265.209C479.718 265.225 470.023 265.097 460.325 264.383Z" fill="#020202"/>
<path d="M306.024 305.804C305.356 306.356 304.698 306.859 304.059 307.324C304.185 306.946 304.33 306.559 304.466 306.182C304.509 306.062 304.576 305.953 304.662 305.86C304.748 305.766 304.851 305.691 304.966 305.638C305.081 305.585 305.206 305.555 305.333 305.55C305.459 305.546 305.586 305.566 305.705 305.611C305.822 305.655 305.93 305.721 306.024 305.804Z" fill="white"/>
<path d="M317.105 293.484C316.466 294.375 315.827 295.226 315.208 296.039C315.305 295.381 315.421 294.723 315.527 294.065C315.569 293.811 315.709 293.584 315.918 293.433C316.126 293.283 316.386 293.221 316.64 293.262C316.813 293.29 316.975 293.367 317.105 293.484V293.484Z" fill="white"/>
<path d="M325.621 279.771C325.166 280.613 324.702 281.426 324.247 282.229C324.189 281.716 324.131 281.194 324.063 280.681V280.652C324.038 280.461 324.07 280.267 324.156 280.095C324.242 279.922 324.377 279.78 324.544 279.685C324.712 279.59 324.904 279.548 325.096 279.563C325.288 279.579 325.471 279.651 325.621 279.771V279.771Z" fill="white"/>
<path d="M289.795 212.122C294.028 208.86 298.244 205.801 302.512 202.687C306.78 199.601 311.097 196.585 315.44 193.602C319.78 190.614 324.174 187.701 328.675 184.939C330.926 183.559 333.196 182.205 335.532 180.941C336.702 180.31 337.888 179.703 339.121 179.154C339.745 178.87 340.383 178.619 341.033 178.4C341.763 178.124 342.54 177.994 343.32 178.018L342.856 178.095C344.482 177.367 346.182 176.822 347.928 176.468C349.672 176.108 351.454 175.967 353.232 176.049C355.034 176.123 356.812 176.495 358.492 177.15C360.178 177.816 361.728 178.783 363.068 180.004L363.073 180.009C363.182 180.107 363.262 180.233 363.304 180.375C363.345 180.516 363.346 180.666 363.307 180.807C359.678 193.902 355.42 206.778 351.018 219.605C348.811 226.017 346.489 232.387 344.139 238.747C341.754 245.095 339.258 251.401 336.652 257.666C331.365 270.15 325.569 282.515 317.854 293.808C315.914 296.632 313.802 299.335 311.531 301.9C309.248 304.507 306.673 306.843 303.858 308.862C300.983 310.975 297.63 312.344 294.097 312.848C292.294 313.058 290.467 312.949 288.702 312.526C286.957 312.088 285.286 311.395 283.743 310.469C283.593 310.381 283.468 310.256 283.381 310.106C283.294 309.956 283.246 309.786 283.244 309.612C283.166 301.442 283.301 293.305 283.537 285.157C283.772 277.013 284.218 268.877 284.748 260.749C285.263 252.619 285.945 244.504 286.796 236.401L287.432 230.327L288.167 224.264C288.643 220.226 289.263 216.123 289.795 212.122ZM289.962 212.22C289.581 216.305 289.155 220.273 288.828 224.334C288.493 228.388 288.14 232.438 287.847 236.494C287.226 244.603 286.767 252.722 286.352 260.841C285.931 268.96 285.698 277.086 285.487 285.211C285.279 293.332 285.174 301.471 285.28 309.575L284.781 308.718C287.502 310.396 290.696 311.142 293.878 310.843C297.09 310.404 300.143 309.179 302.767 307.276C308.19 303.519 312.538 298.255 316.431 292.811C320.292 287.281 323.797 281.512 326.927 275.538C330.117 269.582 333.053 263.483 335.805 257.3C338.574 251.123 341.13 244.85 343.541 238.521C345.985 232.205 348.206 225.804 350.343 219.377C354.598 206.52 358.323 193.477 361.743 180.399L361.983 181.202C360.782 180.125 359.395 179.276 357.889 178.696C356.375 178.121 354.775 177.801 353.155 177.75C351.516 177.692 349.876 177.834 348.271 178.171C346.661 178.481 345.09 178.964 343.585 179.613C343.439 179.677 343.28 179.703 343.121 179.69C342.583 179.698 342.05 179.798 341.545 179.984C340.946 180.179 340.357 180.405 339.78 180.66C338.604 181.17 337.44 181.751 336.288 182.357C333.982 183.575 331.717 184.895 329.469 186.244C324.982 188.962 320.555 191.796 316.139 194.649C311.728 197.51 307.364 200.448 302.997 203.383L289.962 212.22Z" fill="#020202"/>
<path d="M335.455 154.365C335.737 154.356 336.004 154.237 336.201 154.034C336.397 153.831 336.507 153.559 336.507 153.277C336.507 152.994 336.397 152.723 336.201 152.52C336.004 152.317 335.737 152.198 335.455 152.188C335.173 152.198 334.905 152.317 334.709 152.52C334.513 152.723 334.403 152.994 334.403 153.277C334.403 153.559 334.513 153.831 334.709 154.034C334.905 154.237 335.173 154.356 335.455 154.365V154.365Z" fill="#020202"/>
</svg>
