<svg cache-id="ab621bf8003548a29f1430bdefff3b9c" id="eL9Rknyx2jF1" xmlns="http://www.w3.org/2000/svg" xmlns:xlink="http://www.w3.org/1999/xlink" viewBox="0 0 150 196" shape-rendering="geometricPrecision" text-rendering="geometricPrecision"><style><![CDATA[#eL9Rknyx2jF2_ts {animation: eL9Rknyx2jF2_ts__ts 5000ms linear infinite normal forwards}@keyframes eL9Rknyx2jF2_ts__ts { 0% {transform: translate(93.1765px,195px) scale(1,1)} 14% {transform: translate(93.1765px,195px) scale(1,1)} 16% {transform: translate(93.1765px,195px) scale(1.1,0.95)} 20% {transform: translate(93.1765px,195px) scale(1,1)} 68% {transform: translate(93.1765px,195px) scale(1,1)} 70% {transform: translate(93.1765px,195px) scale(1.1,0.95)} 74% {transform: translate(93.1765px,195px) scale(1,1)} 100% {transform: translate(93.1765px,195px) scale(1,1)}} #eL9Rknyx2jF3_to {animation: eL9Rknyx2jF3_to__to 5000ms linear infinite normal forwards}@keyframes eL9Rknyx2jF3_to__to { 0% {transform: translate(93.176498px,105.36702px)} 14% {transform: translate(93.176498px,105.36702px)} 20% {transform: translate(100.797529px,108.39679px)} 30% {transform: translate(100.797529px,108.901752px)} 42% {transform: translate(100.797529px,108.901752px)} 50% {transform: translate(93.176498px,105.36702px)} 60% {transform: translate(93.176498px,105.36702px)} 100% {transform: translate(93.176498px,105.36702px)}} #eL9Rknyx2jF6_to {animation: eL9Rknyx2jF6_to__to 5000ms linear infinite normal forwards}@keyframes eL9Rknyx2jF6_to__to { 0% {transform: translate(60.36691px,70px)} 14% {transform: translate(60.36691px,70px)} 20% {transform: translate(70px,78px)} 30% {transform: translate(70px,78px)} 42% {transform: translate(70px,78px)} 50% {transform: translate(60.36691px,70px)} 60% {transform: translate(60.36691px,70px)} 100% {transform: translate(60.36691px,70px)}} #eL9Rknyx2jF9_to {animation: eL9Rknyx2jF9_to__to 5000ms linear infinite normal forwards}@keyframes eL9Rknyx2jF9_to__to { 0% {transform: translate(126.633062px,70px)} 14% {transform: translate(126.633062px,70px)} 20% {transform: translate(135.999908px,78px)} 30% {transform: translate(135.999908px,78px)} 42% {transform: translate(135.999908px,78px)} 50% {transform: translate(126.633062px,70px)} 60% {transform: translate(126.633062px,70px)} 100% {transform: translate(126.633062px,70px)}} #eL9Rknyx2jF10_to {animation: eL9Rknyx2jF10_to__to 5000ms linear infinite normal forwards}@keyframes eL9Rknyx2jF10_to__to { 0% {transform: translate(40.513002px,153.654855px)} 14% {transform: translate(40.513002px,153.654855px)} 16% {transform: translate(35px,153.654855px)} 20% {transform: translate(40.513002px,153.654855px)} 60% {transform: translate(40.513002px,153.654855px)} 66% {transform: translate(40.513002px,153.654855px)} 74% {transform: translate(28.500047px,101px)} 82% {transform: translate(26.013002px,101px)} 90% {transform: translate(24.86691px,101px)} 96% {transform: translate(26.013002px,101px)} 100% {transform: translate(40.513002px,153.654855px)}} #eL9Rknyx2jF11_to {animation: eL9Rknyx2jF11_to__to 5000ms linear infinite normal forwards}@keyframes eL9Rknyx2jF11_to__to { 0% {transform: translate(40.513002px,153.654855px)} 14% {transform: translate(40.513002px,153.654855px)} 16% {transform: translate(35px,153.654855px)} 20% {transform: translate(40.513002px,153.654855px)} 60% {transform: translate(40.513002px,153.654855px)} 66% {transform: translate(40.513002px,153.654855px)} 74% {transform: translate(28.5px,101px)} 82% {transform: translate(26.5px,101px)} 90% {transform: translate(24.87px,101px)} 96% {transform: translate(26.5px,101px)} 100% {transform: translate(40.513002px,153.654855px)}}]]></style><g id="eL9Rknyx2jF2_ts" transform="translate(93.1765,195) scale(1,1)"><rect width="77" height="194" rx="7" ry="7" transform="translate(-38.1765,-194)" fill="#009f9d" fill-opacity="0.5" stroke="#4e4e4e" stroke-width="2"/></g><g id="eL9Rknyx2jF3_to" transform="translate(93.176498,105.36702)"><rect width="30.353" height="8.73404" rx="4.36702" ry="4.36702" transform="translate(-15.176498,-4.36702)" fill="#fdffff"/></g><rect width="30.353" height="8.73404" rx="4.36702" ry="4.36702" transform="matrix(.923332 0.384004-.384004 0.923332 46.353955 25.000003)" fill="#009f9d" fill-opacity="0.8"/><circle r="21" transform="translate(60.36691 70)" fill="#fff" stroke="#4e4e4e" stroke-width="2"/><g id="eL9Rknyx2jF6_to" transform="translate(60.36691,70)"><circle r="8" transform="translate(0,0)" fill="#4e4e4e"/></g><rect width="30.353" height="8.73404" rx="4.36702" ry="4.36702" transform="matrix(-.923331 0.384004 0.384004 0.923331 140.646 25)" fill="#009f9d" fill-opacity="0.8"/><circle r="21" transform="matrix(-1 0 0 1 126.633062 70)" fill="#fff" stroke="#4e4e4e" stroke-width="2"/><g id="eL9Rknyx2jF9_to" transform="translate(126.633062,70)"><circle r="8" transform="scale(-1,1) translate(0,0)" fill="#4e4e4e"/></g><g id="eL9Rknyx2jF10_to" transform="translate(40.513002,153.654855)"><path d="M9,93c-2.20914,0-4,1.7909-4,4v3h-1c-2.20914,0-4,1.791-4,4v22c0,2.209,1.79086,4,4,4h21c2.2091,0,4-1.791,4-4v-22c0-2.209-1.7909-4-4-4h-11v-3c0-2.2091-1.7909-4-4-4h-1Z" transform="translate(-14.5,-111.5)" clip-rule="evenodd" fill="#009f9d" fill-opacity="0.6" fill-rule="evenodd"/></g><g id="eL9Rknyx2jF11_to" transform="translate(40.513002,153.654855)"><g transform="translate(-14.5,-111.5)" mask="url(#eL9Rknyx2jF13)"><path d="M5,100v2h2v-2h-2Zm9,0h-2v2h2v-2ZM7,97c0-1.1046.89543-2,2-2v-4c-3.31371,0-6,2.6863-6,6h4Zm0,3v-3h-4v3h4Zm-3,2h1v-4h-1v4Zm-2,2c0-1.105.89543-2,2-2v-4c-3.313709,0-6,2.686-6,6h4Zm0,22v-22h-4v22h4Zm2,2c-1.10457,0-2-.895-2-2h-4c0,3.314,2.686292,6,6,6v-4Zm21,0h-21v4h21v-4Zm2-2c0,1.105-.8954,2-2,2v4c3.3137,0,6-2.686,6-6h-4Zm0-22v22h4v-22h-4Zm-2-2c1.1046,0,2,.895,2,2h4c0-3.314-2.6863-6-6-6v4Zm-11,0h11v-4h-11v4Zm-2-5v3h4v-3h-4Zm-2-2c1.1046,0,2,.8954,2,2h4c0-3.3137-2.6863-6-6-6v4ZM9,95h1v-4h-1v4Z" fill="#4e4e4e"/><mask id="eL9Rknyx2jF13" mask-type="luminance"><path d="M9,93c-2.20914,0-4,1.7909-4,4v3h-1c-2.20914,0-4,1.791-4,4v22c0,2.209,1.79086,4,4,4h21c2.2091,0,4-1.791,4-4v-22c0-2.209-1.7909-4-4-4h-11v-3c0-2.2091-1.7909-4-4-4h-1Z" clip-rule="evenodd" fill="#fff" fill-rule="evenodd"/></mask></g></g></svg>