<svg width="175" height="113" viewBox="0 0 175 113" fill="none" xmlns="http://www.w3.org/2000/svg">
<path fill-rule="evenodd" clip-rule="evenodd" d="M123.986 0C121.386 0 119.278 2.10799 119.278 4.70833V12.5555H36.0972C33.4969 12.5555 31.3889 14.6635 31.3889 17.2639V108.292C31.3889 110.892 33.4969 113 36.0972 113H167.931C170.531 113 172.639 110.892 172.639 108.292V18.8818C172.639 18.8657 172.639 18.8495 172.639 18.8333V4.70833C172.639 2.10799 170.531 0 167.931 0H123.986Z" fill="#009F9D"/>
<path d="M42.375 28.25C42.375 25.6497 44.483 23.5417 47.0833 23.5417H156.944C159.545 23.5417 161.653 25.6496 161.653 28.25V97.3055C161.653 99.9059 159.545 102.014 156.944 102.014H47.0833C44.483 102.014 42.375 99.9059 42.375 97.3055V28.25Z" fill="white"/>
<rect x="47.7969" y="38.6324" width="106.885" height="4.52724" rx="2.26362" fill="#009F9D" fill-opacity="0.5"/>
<rect x="47.7969" y="53.7233" width="106.885" height="4.52724" rx="2.26362" fill="#009F9D" fill-opacity="0.5"/>
<rect x="47.7969" y="68.8141" width="106.885" height="4.52724" rx="2.26362" fill="#009F9D" fill-opacity="0.5"/>
<rect x="47.7969" y="83.905" width="106.885" height="4.52724" rx="2.26362" fill="#009F9D" fill-opacity="0.5"/>
<path d="M2.61179 40.9984C1.36266 37.9038 3.64059 34.5278 6.97787 34.5278H139.357C141.277 34.5278 143.005 35.6935 143.723 37.4738L171.597 106.529C172.846 109.624 170.568 113 167.23 113H34.8512C32.9313 113 31.2037 111.834 30.4851 110.054L2.61179 40.9984Z" fill="#A3E0DF" fill-opacity="0.5"/>
</svg>
